<svg width="20" height="22" viewBox="0 0 20 22" fill="none" xmlns="http://www.w3.org/2000/svg">
<path d="M2.04321 3.42334C2.29846 3.1711 2.7098 3.17317 2.96216 3.42822C3.81751 4.29376 5.83794 6.31616 8.16528 8.64307L8.87329 8.27002L9.98462 7.68213L13.2034 5.98389C13.3199 5.91801 13.4433 5.88525 13.5686 5.88525C13.7709 5.88535 13.9686 5.96694 14.1292 6.12744L14.1311 6.12256C14.3907 6.37776 14.4506 6.79377 14.301 7.13037L11.8401 12.314C13.775 14.2462 15.6269 16.0963 16.9592 17.4253C17.2133 17.6788 17.2137 18.0901 16.9602 18.3442C16.7067 18.5981 16.2953 18.5986 16.0413 18.3452C14.7847 17.0918 13.0646 15.3737 11.2483 13.5601L7.9231 20.5679C7.7713 20.8737 7.4828 21.0474 7.177 21.0474H7.05884C6.71124 20.9836 6.43587 20.7104 6.37427 20.3276L5.99536 17.8862L5.83521 16.8521L5.58228 15.2134L0.69165 14.3335C0.326454 14.2697 0.068683 13.9988 0.00708008 13.6138C-0.0391199 13.2486 0.146335 12.8816 0.463135 12.7056L2.84497 11.4487L3.91724 10.8853L5.31567 10.147L6.38696 9.5835L6.96216 9.27881C4.7542 7.07098 2.86068 5.17442 2.03833 4.34229C1.78614 4.08709 1.78831 3.67571 2.04321 3.42334ZM6.39185 10.7778L5.33813 11.3345L3.90356 12.0894L3.35767 12.3774L3.19751 12.4604L1.41333 13.4028L5.76685 14.1831L6.5061 14.3179L6.62036 15.061L6.89575 16.8452L7.05591 17.8706L7.2981 19.4302L8.24243 17.4399L9.56177 14.6548H9.56665V14.6587L10.4602 12.7739C9.55099 11.8658 8.63155 10.9469 7.74634 10.062L6.39185 10.7778ZM9.91626 8.9165L8.94946 9.42725C9.63925 10.1167 10.3474 10.8231 11.052 11.5269L13.0862 7.24268L9.91626 8.9165ZM15.7014 6.15186C15.8489 5.90356 16.1746 5.81982 16.4231 5.96924L18.9944 7.50049C19.243 7.64788 19.3265 7.97358 19.177 8.22217C19.078 8.38717 18.9043 8.47803 18.7239 8.47803H18.7268V8.47998C18.6344 8.47998 18.5411 8.45539 18.4553 8.40479L15.884 6.87354C15.6355 6.7261 15.5518 6.40041 15.7014 6.15186ZM18.9329 3.07666C19.2055 2.97552 19.509 3.11183 19.6125 3.38428C19.7159 3.65708 19.5777 3.96154 19.3049 4.06494L16.5042 5.11865C16.4427 5.14275 16.3789 5.15088 16.3196 5.15088H16.3176C16.1042 5.15088 15.9037 5.02126 15.8245 4.81006C15.7212 4.53733 15.8603 4.23374 16.1331 4.13037L18.9329 3.07666ZM11.2795 0.683105C11.5215 0.522582 11.8494 0.588597 12.01 0.830566L13.6594 3.32568C13.8199 3.56768 13.7539 3.89557 13.512 4.05615C13.4219 4.11532 13.3205 4.14404 13.2239 4.14404H13.2219V4.146C13.0505 4.14597 12.8837 4.06455 12.7825 3.90869L11.1321 1.41357C10.9715 1.17157 11.0375 0.843705 11.2795 0.683105ZM15.4329 0.36377C15.5231 0.0868447 15.8201 -0.0628451 16.095 0.0249023C16.3722 0.115102 16.5218 0.410788 16.4338 0.687988L15.51 3.53662C15.4374 3.75855 15.231 3.90061 15.009 3.90088C14.9546 3.90071 14.9023 3.89289 14.8479 3.87549C14.5708 3.78531 14.4212 3.49051 14.509 3.21338L15.4329 0.36377Z" fill="black"/>
</svg>
