<?xml version="1.0" encoding="UTF-8"?>
<svg id="Layer_1" xmlns="http://www.w3.org/2000/svg" version="1.1" viewBox="0 0 100 100">
  <!-- Generator: Adobe Illustrator 29.5.1, SVG Export Plug-In . SVG Version: 2.1.0 Build 141)  -->
  <defs>
    <style>
      .st0 {
        fill: #fff;
      }
    </style>
  </defs>
  <g>
    <path d="M44.29,49.41c11.85,0,21.54-9.69,21.54-21.54S56.13,6.33,44.29,6.33s-21.54,9.6-21.54,21.54,9.69,21.54,21.54,21.54ZM44.29,11.27c9.15,0,16.6,7.45,16.6,16.6s-7.45,16.6-16.6,16.6-16.6-7.45-16.6-16.6,7.45-16.6,16.6-16.6Z"/>
    <path d="M44,59.28l-5.19,5.19c-12.65,1.17-24.7,6.34-34.19,14.82-1.08.89-2.6.8-3.49-.19-.9-1.07-.82-2.6.18-3.49,11.78-10.44,26.91-16.27,42.7-16.33Z"/>
    <path d="M87.54,79.11c-.54.54-1.17.82-1.88.82-.54,0-1.17-.19-1.61-.63-1.33-1.18-2.72-2.3-4.16-3.35l3.52-3.5c1.32,1,2.61,2.06,3.87,3.17,1.08.89,1.17,2.51.26,3.49Z"/>
  </g>
  <g>
    <g>
      <path class="st0" d="M93,47.66l-3.31,3.31-11.1-11.09,3.32-3.31c.85-.86,1.96-1.28,3.07-1.28s2.24.42,3.09,1.27l4.93,4.94c1.7,1.7,1.7,4.46,0,6.16Z"/>
      <path class="st0" d="M96.7,51.35l-38.68,38.68c-1.59,1.59-3.69,2.57-5.93,2.77l-9.56.85c-.18.01-.36.02-.54.02-1.61,0-3.15-.64-4.31-1.79-1.28-1.29-1.92-3.05-1.76-4.85l.85-9.56c.2-2.24,1.18-4.34,2.77-5.94l38.67-38.67c1.87-1.86,4.33-2.8,6.78-2.8s4.92.93,6.78,2.8l4.94,4.93c3.74,3.75,3.74,9.82,0,13.56Z"/>
      <path d="M96.7,37.79l-4.94-4.93c-1.86-1.87-4.32-2.8-6.78-2.8s-4.9.94-6.78,2.8l-38.67,38.67c-1.59,1.6-2.57,3.7-2.77,5.94l-.85,9.56c-.15,1.8.48,3.56,1.76,4.85,1.16,1.15,2.7,1.79,4.31,1.79.18,0,.36-.01.54-.02l9.56-.85c2.24-.2,4.34-1.18,5.93-2.77l38.68-38.68c3.74-3.74,3.74-9.81,0-13.56ZM74.1,66.56l-3.66,3.67-16.11,16.1c-.73.73-1.69,1.17-2.7,1.26l-9.54.85c-.36.06-.6-.14-.69-.25-.11-.1-.29-.34-.26-.69l.85-9.54c.1-1.02.54-1.98,1.26-2.7l31.68-31.68,11.1,11.1-11.9,11.89ZM93,47.66l-3.31,3.31-11.1-11.09,3.32-3.31c.85-.86,1.96-1.28,3.07-1.28s2.24.42,3.09,1.27l4.93,4.94c1.7,1.7,1.7,4.46,0,6.16Z"/>
    </g>
    <path class="st0" d="M86,54.67l-11.9,11.89-3.66,3.67-16.11,16.1c-.73.73-1.69,1.17-2.7,1.26l-9.54.85c-.36.06-.6-.14-.69-.25-.11-.1-.29-.34-.26-.69l.85-9.54c.1-1.02.54-1.98,1.26-2.7l31.68-31.68,11.1,11.1Z"/>
  </g>
</svg>