<?xml version="1.0" encoding="UTF-8"?>
<svg id="Layer_1" xmlns="http://www.w3.org/2000/svg" version="1.1" viewBox="0 0 100 100">
  <!-- Generator: Adobe Illustrator 29.6.1, SVG Export Plug-In . SVG Version: 2.1.1 Build 9)  -->
  <defs>
    <style>
      .st0 {
        fill: #fff;
      }
    </style>
  </defs>
  <g>
    <path d="M44.29,49.41c11.85,0,21.54-9.69,21.54-21.54S56.13,6.33,44.29,6.33s-21.54,9.6-21.54,21.54,9.69,21.54,21.54,21.54ZM44.29,11.27c9.15,0,16.6,7.45,16.6,16.6s-7.45,16.6-16.6,16.6-16.6-7.45-16.6-16.6,7.45-16.6,16.6-16.6Z"/>
    <path d="M44,59.28l-5.19,5.19c-12.65,1.17-24.7,6.34-34.19,14.82-1.08.89-2.6.8-3.49-.19-.9-1.07-.82-2.6.18-3.49,11.78-10.44,26.91-16.27,42.7-16.33h-.01Z"/>
    <path d="M87.54,79.11c-.54.54-1.17.82-1.88.82-.54,0-1.17-.19-1.61-.63-1.33-1.18-2.72-2.3-4.16-3.35l3.52-3.5c1.32,1,2.61,2.06,3.87,3.17,1.08.89,1.17,2.51.26,3.49Z"/>
  </g>
  <g>
    <path class="st0" d="M99.4,43.2c-.11-.76-.31-1.51-.6-2.23-.46-1.16-1.16-2.24-2.1-3.18h-.01l-4.93-4.93c-1.86-1.87-4.32-2.8-6.78-2.8-1.07,0-2.14.18-3.16.53-.15.06-.3.11-.44.17-1.15.47-2.24,1.17-3.18,2.1l-38.66,38.67c-1.59,1.6-2.57,3.7-2.77,5.94l-.85,9.56c-.04.47-.03.94.04,1.39.04.31.11.62.2.92.29.94.8,1.81,1.52,2.54,1.16,1.15,2.69,1.79,4.3,1.79.18,0,.36-.01.54-.02l9.56-.85c2.24-.2,4.34-1.18,5.93-2.77h.01l38.68-38.68c.94-.94,1.64-2.02,2.1-3.17.29-.72.49-1.47.6-2.23.13-.91.13-1.84,0-2.75ZM81.91,36.57c.85-.86,1.96-1.28,3.07-1.28s2.24.42,3.09,1.27l4.93,4.94c1.7,1.7,1.7,4.46,0,6.16l-3.31,3.31-11.1-11.09,3.32-3.31ZM54.33,86.33c-.73.73-1.69,1.17-2.7,1.26l-9.54.85c-.36.06-.6-.14-.69-.25-.11-.1-.29-.34-.26-.69l.85-9.54c.1-1.02.54-1.98,1.26-2.7l31.68-31.68,11.09,11.1-11.9,11.89h-.02s-3.66,3.66-3.66,3.66l-16.11,16.1Z"/>
    <path d="M99.4,43.2c-.11-.76-.31-1.51-.6-2.23-.47-1.16-1.18-2.24-2.11-3.18l-4.93-4.93c-1.86-1.87-4.32-2.8-6.78-2.8-1.07,0-2.14.18-3.16.53-.15.06-.3.11-.44.17-1.15.47-2.24,1.17-3.18,2.1l-38.66,38.67h-.01c-1.59,1.6-2.57,3.7-2.77,5.94l-.85,9.56c-.04.47-.03.93.05,1.39.04.31.11.62.2.92.27.94.79,1.82,1.51,2.54h.01c1.16,1.15,2.69,1.79,4.3,1.79.18,0,.36-.01.54-.02l9.56-.85c2.24-.2,4.34-1.18,5.93-2.77h.01l38.67-38.68c.93-.94,1.64-2.02,2.11-3.17.29-.72.49-1.47.6-2.23.13-.91.13-1.84,0-2.75ZM74.12,66.57h-.02s-3.66,3.66-3.66,3.66l-16.11,16.1c-.73.73-1.69,1.17-2.7,1.26l-9.54.85c-.36.06-.6-.14-.69-.25-.11-.1-.29-.34-.26-.69l.85-9.54c.1-1.02.54-1.98,1.26-2.7l31.68-31.68,11.09,11.1-11.9,11.89ZM93,47.66l-3.31,3.31-11.1-11.09,3.32-3.31c.85-.86,1.96-1.28,3.07-1.28s2.24.42,3.09,1.27l4.93,4.94c1.7,1.7,1.7,4.46,0,6.16Z"/>
  </g>
</svg>