<?xml version="1.0" encoding="UTF-8"?>
<svg id="Layer_1" xmlns="http://www.w3.org/2000/svg" version="1.1" viewBox="0 0 100 100">
  <!-- Generator: Adobe Illustrator 30.3.0, SVG Export Plug-In . SVG Version: 2.1.3 Build 182)  -->
  <defs>
    <style>
      .st0 {
        fill: none;
      }
    </style>
  </defs>
  <path d="M78-77.2v5.3h0c-.2,6.4-5.5,11.5-11.9,11.5h-5l-6.3,6.3h11.2c9.9,0,18-8.1,18-18v-11.2l-6.1,6.1Z"/>
  <g>
    <path d="M93.1-107.2l-5.4-5.4c-3.6-3.6-9.3-4.1-13.4-1.3-1.6-.9-3.4-1.5-5.3-1.9v-5c0-13.7-11.2-24.8-25-24.8s-25,11.2-25,24.9v5c-8.8,1.8-15.2,9.6-15.2,18.7v24.9c0,9.9,8.1,18,18,18h4.4v1.1c-.3,2,.4,3.9,1.8,5.3,1.3,1.3,3,2,4.8,2s.4,0,.6,0l10.5-.9c2.5-.2,4.8-1.3,6.6-3l4.4-4.4,23.1-23.1,6.1-6.1,3.3-3.3h0s5.7-5.7,5.7-5.7c2-2,3.1-4.6,3.1-7.5s-1.1-5.5-3.1-7.5ZM25.1-120.7c0-10.4,8.5-18.8,18.9-18.8s18.9,8.5,18.9,18.8v4.5H25.1v-4.5ZM27-63.5l-.3,3.1h-4.9c-6.6,0-11.9-5.3-11.9-11.9v-24.8c0-7.2,5.8-13,13-13h42.2c1.5,0,3,.3,4.4.8l-19.6,19.6v-1.7c-.3-3.9-2.8-6.9-5.8-6.9s-5.6,3.1-5.6,7v10.7c0,.7,0,1.3.2,2l-8.6,8.6c-1.7,1.7-2.8,4.1-3.1,6.5ZM53-60.4l-6.3,6.3-.3.3c-.8.8-1.8,1.3-3,1.4l-10.5.9c-.4,0-.6-.2-.8-.3-.1-.1-.3-.4-.3-.8v-1.6c.1,0,.7-6.3.7-6.3l.2-2.6c0-1.1.6-2.2,1.4-3l5.9-5.9,9.7-9.7,19.3-19.3,12.2,12.2-28.3,28.2ZM89.1-96.3l-3.6,3.6-1.3-1.3-6.6-6.5h0s-4.4-4.4-4.4-4.4l1.2-1.2,2.4-2.4c.2-.2.4-.3.6-.5,0,0,.2-.1.3-.2.2-.1.3-.2.5-.2.2,0,.3-.1.5-.2.2,0,.4-.1.6-.2,0,0,0,0,0,0,1.5-.3,3.1.2,4.2,1.3l5.4,5.4c.9.9,1.4,2.1,1.4,3.4s-.5,2.5-1.4,3.4Z"/>
    <path class="st0" d="M90.5-99.7c0,1.3-.5,2.5-1.4,3.4l-3.6,3.6-1.3-1.3-6.6-6.5h0s-4.4-4.4-4.4-4.4l1.2-1.2,2.4-2.4c.2-.2.4-.3.6-.5,0,0,.2-.1.3-.2.2-.1.3-.2.5-.2.2,0,.3-.1.5-.2.2,0,.4-.1.6-.2,0,0,0,0,0,0,1.5-.3,3.1.2,4.2,1.3l5.4,5.4c.9.9,1.4,2.1,1.4,3.4Z"/>
    <path class="st0" d="M81.3-88.6l-28.3,28.2-6.3,6.3-.3.3c-.8.8-1.8,1.3-3,1.4l-10.5.9c-.4,0-.6-.2-.8-.3-.1-.1-.3-.4-.3-.8v-1.6c.1,0,.7-6.3.7-6.3l.2-2.6c0-1.1.6-2.2,1.4-3l5.9-5.9,9.7-9.7,19.3-19.3,12.2,12.2Z"/>
  </g>
  <path d="M95.5,36.5l-5.6-5.6c-4.2-4.2-11.2-4.2-15.4,0l-.7.7c-.5-.2-1-.3-1.5-.4v-5.1C72.2,11.8,60.6.3,46.4.3s-25.8,11.6-25.8,25.8v5.1c-9.1,1.9-15.7,10-15.7,19.3v25.7c0,10.3,8.4,18.6,18.6,18.6h3c.3,1.1.9,2.2,1.8,3.1,1.3,1.3,3.1,2,4.9,2s.4,0,.6,0l10.9-1c2.5-.2,5-1.3,6.8-3.1l1-1h16.8c10.3,0,18.6-8.4,18.6-18.6v-16.8l1.8-1.8h0s5.9-5.9,5.9-5.9c2.1-2.1,3.2-4.8,3.2-7.7s-1.1-5.6-3.2-7.7ZM26.9,26.1c0-10.8,8.8-19.5,19.5-19.5s19.5,8.7,19.5,19.5v4.7H26.9v-4.7ZM27.3,81.6l-.6,6.8h-3.1c-6.8,0-12.3-5.5-12.3-12.3v-25.6c0-7.4,6-13.4,13.4-13.4h43.6l-16.5,16.5c-1-2.6-3-4.3-5.3-4.3s-5.7,3.2-5.7,7.2v8.2l-10.2,10.2c-1.8,1.8-2.9,4.2-3.1,6.8ZM69.3,88.4h-10.4l22.6-22.6v10.7h0c-.2,6.6-5.7,11.9-12.3,11.9ZM81.5,57.4l-31,31-3.2,3.2c-.8.8-1.9,1.3-3.1,1.5l-10.9,1c-.4,0-.7-.2-.8-.3-.1-.1-.3-.4-.3-.8l.4-4.6.6-6.3c0-1.2.6-2.3,1.4-3.1l36-36,10.9,10.9,1.8,1.8-1.8,1.8ZM91.3,47.7l-3.8,3.8-7.9-7.9-4.6-4.6h-.1c0-.1,3.8-3.9,3.8-3.9.3-.3.6-.5,1-.7,1.9-1.1,4.5-.9,6.1.7l5.6,5.6c1,.9,1.5,2.2,1.5,3.5s-.5,2.6-1.5,3.5Z"/>
  <g>
    <path class="st0" d="M92.7,44.2c0,1.3-.5,2.6-1.5,3.5l-3.8,3.8-7.9-7.9-4.6-4.6h-.1c0-.1,3.8-3.9,3.8-3.9.3-.3.6-.5,1-.7,1.9-1.1,4.5-.9,6.1.7l5.6,5.6c1,.9,1.5,2.2,1.5,3.5Z"/>
    <path class="st0" d="M83.3,55.6l-1.8,1.8-31,31-3.2,3.2c-.8.8-1.9,1.3-3.1,1.5l-10.9,1c-.4,0-.7-.2-.8-.3-.1-.1-.3-.4-.3-.8l.4-4.6.6-6.3c0-1.2.6-2.3,1.4-3.1l36-36,10.9,10.9,1.8,1.8Z"/>
  </g>
</svg>