<?xml version="1.0" encoding="utf-8"?>
<!-- Generator: Adobe Illustrator 25.4.1, SVG Export Plug-In . SVG Version: 6.00 Build 0)  -->
<svg version="1.1" id="Layer_2_1_" xmlns="http://www.w3.org/2000/svg" xmlns:xlink="http://www.w3.org/1999/xlink" x="0px" y="0px"
	 viewBox="0 0 100 100" style="enable-background:new 0 0 100 100;" xml:space="preserve">
<g>
	<path d="M50,85.2c-3,0-5.7,2.5-5.7,5.7c0,3.2,2.5,5.7,5.7,5.7s5.7-2.5,5.7-5.7C55.7,87.7,53,85.2,50,85.2z"/>
	<path d="M50,44.3c-3,0-5.7,2.5-5.7,5.7s2.5,5.7,5.7,5.7s5.7-2.5,5.7-5.7S53,44.3,50,44.3z"/>
	<path d="M50,3.4c-3,0-5.7,2.5-5.7,5.7s2.5,5.7,5.7,5.7s5.7-2.5,5.7-5.7S53,3.4,50,3.4z"/>
</g>
</svg>
