<?xml version="1.0" encoding="UTF-8"?>
<svg id="Ebene_3" xmlns="http://www.w3.org/2000/svg" version="1.1" viewBox="0 0 100 100">
  <!-- Generator: Adobe Illustrator 29.6.1, SVG Export Plug-In . SVG Version: 2.1.1 Build 9)  -->
  <path d="M48.5,47.6L85.2,10.9h-20.7c-1.5,0-2.8-1.2-2.8-2.8s1.2-2.8,2.8-2.8h30.1v30.1c0,1.5-1.2,2.8-2.8,2.8s-2.8-1.2-2.8-2.8V14.8l-36.7,36.7c-.5.5-1.2.8-1.9.8s-1.4-.3-1.9-.8c-1-1.1-1-2.8,0-3.9Z"/>
  <path d="M83,89.8H13.1V20h37.6c1.5,0,2.7-1.2,2.7-2.7h0c0-1.5-1.2-2.8-2.7-2.8H9.5c-1,0-1.9.8-1.9,1.9v77.1c0,1,.8,1.9,1.9,1.9h77.1c1,0,1.9-.8,1.9-1.9v-41.4c0-1.5-1.2-2.7-2.7-2.7h0c-1.5,0-2.7,1.2-2.7,2.7v37.8Z"/>
</svg>