<?xml version="1.0" encoding="UTF-8"?>
<svg xmlns="http://www.w3.org/2000/svg" xmlns:xlink="http://www.w3.org/1999/xlink" version="1.1" viewBox="0 0 100 100">
  <!-- Generator: Adobe Illustrator 29.5.1, SVG Export Plug-In . SVG Version: 2.1.0 Build 141)  -->
  <defs>
    <style>
      .st0 {
        fill: none;
        stroke: #000;
        stroke-linecap: round;
        stroke-linejoin: round;
        stroke-width: 6px;
      }

      .st1 {
        display: none;
      }
    </style>
  </defs>
  <g id="Ebene_3" class="st1">
    <g id="YIaeWw">
      <image id="YIaeWw1" data-name="YIaeWw" width="113" height="101" transform="translate(-43.21 -29.64) scale(1.62)" xlink:href="share2-1.png"/>
    </g>
  </g>
  <g id="Ebene_2">
    <polyline class="st0" points="75.34 84.57 18.14 49.31 75.07 15.51"/>
    <g>
      <path d="M75.07,23.1c-4.19,0-7.59-3.41-7.59-7.59s3.41-7.59,7.59-7.59,7.59,3.4,7.59,7.59-3.41,7.59-7.59,7.59Z"/>
      <path d="M75.07,10.92c2.53,0,4.59,2.06,4.59,4.59s-2.06,4.59-4.59,4.59-4.59-2.06-4.59-4.59,2.06-4.59,4.59-4.59M75.07,4.92c-5.85,0-10.59,4.74-10.59,10.59s4.74,10.59,10.59,10.59,10.59-4.74,10.59-10.59-4.74-10.59-10.59-10.59h0Z"/>
    </g>
    <g>
      <path d="M75.07,91.89c-4.19,0-7.59-3.41-7.59-7.59s3.41-7.59,7.59-7.59,7.59,3.41,7.59,7.59-3.41,7.59-7.59,7.59Z"/>
      <path d="M75.07,79.71c2.53,0,4.59,2.06,4.59,4.59s-2.06,4.59-4.59,4.59-4.59-2.06-4.59-4.59,2.06-4.59,4.59-4.59M75.07,73.71c-5.85,0-10.59,4.74-10.59,10.59s4.74,10.59,10.59,10.59,10.59-4.74,10.59-10.59-4.74-10.59-10.59-10.59h0Z"/>
    </g>
    <g>
      <path d="M18.14,56.91c-4.19,0-7.59-3.41-7.59-7.59s3.4-7.59,7.59-7.59,7.59,3.41,7.59,7.59-3.41,7.59-7.59,7.59Z"/>
      <path d="M18.14,44.73c2.53,0,4.59,2.06,4.59,4.59s-2.06,4.59-4.59,4.59-4.59-2.06-4.59-4.59,2.06-4.59,4.59-4.59M18.14,38.73c-5.85,0-10.59,4.74-10.59,10.59s4.74,10.59,10.59,10.59,10.59-4.74,10.59-10.59-4.74-10.59-10.59-10.59h0Z"/>
    </g>
  </g>
</svg>