<svg width="55" height="60" viewBox="0 0 55 60" fill="none" xmlns="http://www.w3.org/2000/svg">
<path d="M3.82753 7.33569H21.3806C22.3956 7.33591 23.369 7.73931 24.0866 8.45716L50.8794 35.2499C51.5969 35.9676 52 36.941 52 37.9559C52 38.9709 51.5969 39.9442 50.8794 40.662L42.1028 49.4385L33.3263 58.215C32.6085 58.9326 31.6352 59.3357 30.6202 59.3357C29.6053 59.3357 28.6319 58.9326 27.9142 58.215L1.12147 31.4223C0.403615 30.7047 0.000216781 29.7313 0 28.7163V11.1632C0 10.1481 0.403256 9.17455 1.12106 8.45675C1.83886 7.73895 2.81241 7.33569 3.82753 7.33569ZM3.82753 28.7163L30.6202 55.509L48.1733 37.9559L21.3806 11.1632H3.82753V28.7163Z" fill="black"/>
<path d="M5.41406 1.75H26.4141L52.9141 28.25" stroke="black" stroke-width="3.5" stroke-linecap="round" stroke-linejoin="round"/>
<path fill-rule="evenodd" clip-rule="evenodd" d="M12.5 13.9219C14.0683 13.9219 15.5726 14.5444 16.6816 15.6533C17.7907 16.7624 18.4141 18.2674 18.4141 19.8359C18.414 21.4043 17.7907 22.9085 16.6816 24.0176C15.5726 25.1266 14.0684 25.75 12.5 25.75C10.9316 25.75 9.42745 25.1266 8.31836 24.0176C7.20933 22.9085 6.58602 21.4043 6.58594 19.8359C6.58594 18.2674 7.20926 16.7624 8.31836 15.6533C9.42743 14.5444 10.9317 13.9219 12.5 13.9219ZM12.4316 17.3613C11.1024 17.3614 10.0244 18.4393 10.0244 19.7686C10.0246 21.0977 11.1025 22.1747 12.4316 22.1748C13.7609 22.1748 14.8387 21.0977 14.8389 19.7686C14.8389 18.4392 13.761 17.3613 12.4316 17.3613Z" fill="black"/>
</svg>
