<svg fill="none" xmlns="http://www.w3.org/2000/svg" viewBox="0 0 95.14 103.25">
  <path d="M88.49,12.95h-30.48c-1.76,0-3.45.7-4.7,1.95L6.78,61.42c-1.25,1.25-1.95,2.94-1.95,4.7s.7,3.45,1.95,4.7l15.24,15.24,15.24,15.24c1.25,1.25,2.94,1.95,4.7,1.95s3.45-.7,4.7-1.95l46.53-46.53c1.25-1.25,1.95-2.94,1.95-4.7v-30.48c0-1.76-.7-3.45-1.95-4.7-1.25-1.25-2.94-1.95-4.7-1.95ZM88.49,50.08l-46.53,46.53-30.48-30.48L58.01,19.6h30.48v30.48Z"/>
  <path d="M3.25,52.52c-.83,0-1.66-.32-2.3-.95-1.27-1.27-1.27-3.33,0-4.6L46.97.95c.61-.61,1.44-.95,2.3-.95h36.47c1.79,0,3.25,1.46,3.25,3.25s-1.46,3.25-3.25,3.25h-35.12L5.55,51.57c-.63.63-1.47.95-2.3.95Z"/>
  <path class="cls-1" d="M73.43,24.39c-2.72,0-5.34,1.08-7.26,3.01-1.93,1.93-3.01,4.54-3.01,7.26,0,2.72,1.08,5.34,3.01,7.26,1.93,1.93,4.54,3.01,7.26,3.01s5.34-1.08,7.26-3.01c1.93-1.93,3.01-4.54,3.01-7.26,0-2.72-1.08-5.34-3.01-7.26-1.93-1.93-4.54-3.01-7.26-3.01ZM73.55,30.36c2.31,0,4.18,1.87,4.18,4.18,0,2.31-1.87,4.18-4.18,4.18-2.31,0-4.18-1.87-4.18-4.18,0-2.31,1.87-4.18,4.18-4.18Z"/>
</svg>
