<?xml version="1.0" encoding="utf-8"?>
<svg version="1.1" id="Layer_2_1_" xmlns="http://www.w3.org/2000/svg" xmlns:xlink="http://www.w3.org/1999/xlink" x="0px" y="0px"
	 viewBox="0 0 100 100" style="enable-background:new 0 0 100 100;" xml:space="preserve">
<g>
	<path d="M47.3,37.3v24.2c0,1.5,1.2,2.8,2.8,2.8s2.8-1.2,2.8-2.8V37.3c0-1.5-1.2-2.8-2.8-2.8S47.3,35.7,47.3,37.3z"/>
	<path d="M50,70.8c-1.7,0-3.2,1.4-3.2,3.2s1.4,3.2,3.2,3.2s3.2-1.4,3.2-3.2S51.7,70.8,50,70.8z"/>
	<path d="M51.1,15.9L51.1,15.9L51.1,15.9 M49.7,18.1l41.7,65.1H8.6L49.7,18.1 M49.7,11.2c-1.2,0-2.5,0.6-3.2,1.8l-44,69.7
			c-1.9,2.5-0.1,6.1,3.1,6.1h89c3,0,4.9-3.3,3.2-5.9L52.9,13C52.1,11.8,50.9,11.2,49.7,11.2L49.7,11.2z"/>
</g>
</svg>
