<?xml version="1.0" encoding="utf-8"?>
<!-- Generator: Adobe Illustrator 25.2.3, SVG Export Plug-In . SVG Version: 6.00 Build 0)  -->
<svg version="1.1" id="Layer_2_1_" xmlns="http://www.w3.org/2000/svg" xmlns:xlink="http://www.w3.org/1999/xlink" x="0px" y="0px"
	 viewBox="0 0 113.4 113.4" style="enable-background:new 0 0 113.4 113.4;" xml:space="preserve">
<style type="text/css">
	.st0{opacity:0.85;}
	.st1{fill:#FFED00;}
</style>
<g>
	<path d="M54,44v24.2c0,1.5,1.2,2.8,2.8,2.8s2.8-1.2,2.8-2.8V44c0-1.5-1.2-2.8-2.8-2.8S54,42.4,54,44z"/>
	<path d="M56.7,77.5c-1.7,0-3.2,1.4-3.2,3.2s1.4,3.2,3.2,3.2s3.2-1.4,3.2-3.2S58.4,77.5,56.7,77.5z"/>
</g>
<g class="st0">
	<path d="M57.8,22.6L57.8,22.6L57.8,22.6 M56.4,24.8L98.1,90H15.3L56.4,24.8 M56.4,17.9c-1.2,0-2.5,0.6-3.2,1.8l-44,69.7
		c-1.9,2.5-0.1,6.1,3.1,6.1h89c3,0,4.9-3.3,3.2-5.9L59.6,19.7C58.8,18.5,57.6,17.9,56.4,17.9L56.4,17.9z"/>
</g>
</svg>
