<?xml version="1.0" encoding="UTF-8"?>
<svg id="Ebene_1" data-name="Ebene 1" xmlns="http://www.w3.org/2000/svg" xmlns:xlink="http://www.w3.org/1999/xlink" viewBox="0 0 1144.44 341">
  <defs>
    <style>
      .cls-1 {
        fill: none;
      }

      .cls-2 {
        clip-path: url(#clippath);
      }

      .cls-3 {
        fill: url(#Unbenannter_Verlauf_24-2);
      }

      .cls-4 {
        fill: #002a60;
      }

      .cls-5 {
        fill: #fff;
      }

      .cls-6 {
        fill: #222120;
      }

      .cls-7 {
        clip-path: url(#clippath-1);
      }

      .cls-8 {
        clip-path: url(#clippath-2);
      }

      .cls-9 {
        opacity: .23;
      }

      .cls-10 {
        opacity: .43;
      }

      .cls-11 {
        fill: url(#Unbenannter_Verlauf_25);
      }

      .cls-12 {
        fill: url(#Unbenannter_Verlauf_23);
      }

      .cls-13 {
        fill: url(#Unbenannter_Verlauf_24);
      }

      .cls-14 {
        fill: url(#Unbenannter_Verlauf_26);
      }

      .cls-15 {
        fill: url(#Unbenannter_Verlauf_29);
      }

      .cls-16 {
        fill: url(#Unbenannter_Verlauf_27);
      }

      .cls-17 {
        fill: url(#Unbenannter_Verlauf_28);
      }

      .cls-18 {
        fill: url(#Unbenannter_Verlauf_22);
      }

      .cls-19 {
        fill: url(#Unbenannter_Verlauf_20);
      }

      .cls-20 {
        fill: url(#Unbenannter_Verlauf_7);
      }

      .cls-21 {
        fill: url(#Unbenannter_Verlauf_21);
        opacity: .29;
      }

      .cls-21, .cls-22, .cls-23, .cls-24 {
        isolation: isolate;
      }

      .cls-22 {
        fill: url(#Unbenannter_Verlauf_18);
        opacity: .9;
      }

      .cls-23 {
        fill: url(#Unbenannter_Verlauf_17);
        opacity: .5;
      }

      .cls-24 {
        fill: url(#Unbenannter_Verlauf_19);
        opacity: .61;
      }
    </style>
    <clipPath id="clippath">
      <rect class="cls-1" x="72.05" y="71.76" width="197.49" height="197.49" transform="translate(-70.54 170.71) rotate(-45)"/>
    </clipPath>
    <linearGradient id="Unbenannter_Verlauf_24" data-name="Unbenannter Verlauf 24" x1="113.98" y1="-825.53" x2="113.98" y2="-1157.93" gradientTransform="translate(57.31 1166.62)" gradientUnits="userSpaceOnUse">
      <stop offset="0" stop-color="#c2244e"/>
      <stop offset=".03" stop-color="#b42855"/>
      <stop offset=".15" stop-color="#8a346a"/>
      <stop offset=".25" stop-color="#693d7a"/>
      <stop offset=".36" stop-color="#524486"/>
      <stop offset=".45" stop-color="#44488d"/>
      <stop offset=".54" stop-color="#3f498f"/>
      <stop offset=".88" stop-color="#2c8ae1"/>
      <stop offset="1" stop-color="#25a1ff"/>
    </linearGradient>
    <linearGradient id="Unbenannter_Verlauf_29" data-name="Unbenannter Verlauf 29" x1="-165.69" y1="-995.68" x2="113.9" y2="-995.68" gradientTransform="translate(57.31 1166.62)" gradientUnits="userSpaceOnUse">
      <stop offset=".22" stop-color="#0051b4"/>
      <stop offset="1" stop-color="#37529c" stop-opacity="0"/>
    </linearGradient>
    <radialGradient id="Unbenannter_Verlauf_28" data-name="Unbenannter Verlauf 28" cx="7305.01" cy="184.42" fx="7305.01" fy="184.42" r="68.82" gradientTransform="translate(4206.59 15980.43) rotate(-105.23) scale(2.23 2.04) skewX(.89)" gradientUnits="userSpaceOnUse">
      <stop offset=".1" stop-color="#002a60"/>
      <stop offset=".32" stop-color="#042d65" stop-opacity=".76"/>
      <stop offset=".57" stop-color="#113672" stop-opacity=".48"/>
      <stop offset=".83" stop-color="#254589" stop-opacity=".19"/>
      <stop offset="1" stop-color="#37529c" stop-opacity="0"/>
    </radialGradient>
    <linearGradient id="Unbenannter_Verlauf_27" data-name="Unbenannter Verlauf 27" x1="1632.53" y1="-1532.46" x2="1632.53" y2="-1685.4" gradientTransform="translate(-1561.8 2144.74) rotate(-9.17) scale(1.25 1)" gradientUnits="userSpaceOnUse">
      <stop offset="0" stop-color="#c2244e"/>
      <stop offset=".54" stop-color="#703f7c" stop-opacity=".61"/>
      <stop offset=".54" stop-color="#6e407d" stop-opacity=".6"/>
      <stop offset=".88" stop-color="#37529c" stop-opacity="0"/>
    </linearGradient>
    <linearGradient id="Unbenannter_Verlauf_26" data-name="Unbenannter Verlauf 26" x1="849.21" y1="689.8" x2="836.64" y2="830.92" gradientTransform="translate(-739.7 -1416.19) rotate(4.97) scale(1.22 2.01)" gradientUnits="userSpaceOnUse">
      <stop offset=".05" stop-color="#25a1ff"/>
      <stop offset=".47" stop-color="#108fff" stop-opacity=".74"/>
      <stop offset="1" stop-color="#0037d3" stop-opacity="0"/>
    </linearGradient>
    <linearGradient id="Unbenannter_Verlauf_25" data-name="Unbenannter Verlauf 25" x1="118.8" y1="-827.82" x2="118.8" y2="-1017.04" gradientTransform="translate(57.31 1166.62)" gradientUnits="userSpaceOnUse">
      <stop offset=".15" stop-color="#c2244e"/>
      <stop offset=".61" stop-color="#703f7c" stop-opacity=".61"/>
      <stop offset=".88" stop-color="#37529c" stop-opacity="0"/>
    </linearGradient>
    <clipPath id="clippath-1">
      <rect class="cls-1" x="102.86" y="71.74" width="197.51" height="197.51" transform="translate(-61.51 192.51) rotate(-45)"/>
    </clipPath>
    <linearGradient id="Unbenannter_Verlauf_24-2" data-name="Unbenannter Verlauf 24" x1="144.81" y1="1395.09" x2="144.81" y2="1727.53" gradientTransform="translate(57.31 1736.2) scale(1 -1)" xlink:href="#Unbenannter_Verlauf_24"/>
    <linearGradient id="Unbenannter_Verlauf_23" data-name="Unbenannter Verlauf 23" x1="217.67" y1="1685.79" x2="138.1" y2="1490.23" gradientTransform="translate(57.31 1736.2) scale(1 -1)" gradientUnits="userSpaceOnUse">
      <stop offset=".08" stop-color="#25a1ff"/>
      <stop offset=".23" stop-color="#1b81d5"/>
      <stop offset=".4" stop-color="#1162ab"/>
      <stop offset=".57" stop-color="#0a4a8a"/>
      <stop offset=".72" stop-color="#043873"/>
      <stop offset=".87" stop-color="#012e65"/>
      <stop offset="1" stop-color="#002a60"/>
    </linearGradient>
    <radialGradient id="Unbenannter_Verlauf_22" data-name="Unbenannter Verlauf 22" cx="3486.01" cy="-132.71" fx="3486.01" fy="-132.71" r="182.49" gradientTransform="translate(-7147.26 -150.25) scale(2.11 -1.56)" gradientUnits="userSpaceOnUse">
      <stop offset="0" stop-color="#002a60" stop-opacity="0"/>
      <stop offset=".1" stop-color="#082a5f" stop-opacity=".1"/>
      <stop offset=".27" stop-color="#1e295d" stop-opacity=".27"/>
      <stop offset=".47" stop-color="#43285a" stop-opacity=".47"/>
      <stop offset=".7" stop-color="#752655" stop-opacity=".7"/>
      <stop offset=".95" stop-color="#b5244f" stop-opacity=".95"/>
      <stop offset="1" stop-color="#c2244e"/>
    </radialGradient>
    <linearGradient id="Unbenannter_Verlauf_21" data-name="Unbenannter Verlauf 21" x1="1025.73" y1="-7879.91" x2="1379.48" y2="-7879.91" gradientTransform="translate(7780.09 -2398.65) rotate(80.2) scale(1 -1)" gradientUnits="userSpaceOnUse">
      <stop offset="0" stop-color="#002a60" stop-opacity="0"/>
      <stop offset=".1" stop-color="#082a5f" stop-opacity=".1"/>
      <stop offset=".27" stop-color="#1e295d" stop-opacity=".27"/>
      <stop offset=".47" stop-color="#43285a" stop-opacity=".47"/>
      <stop offset=".7" stop-color="#752655" stop-opacity=".7"/>
      <stop offset=".89" stop-color="#b5244f" stop-opacity=".95"/>
      <stop offset="1" stop-color="#c2244e"/>
    </linearGradient>
    <linearGradient id="Unbenannter_Verlauf_20" data-name="Unbenannter Verlauf 20" x1="1164.01" y1="-3.35" x2="1151.7" y2="-101.24" gradientTransform="translate(-1178.46 -113.21) rotate(4.97) scale(1.22 -2.01)" gradientUnits="userSpaceOnUse">
      <stop offset=".18" stop-color="#25a1ff"/>
      <stop offset=".46" stop-color="#1a7cd5" stop-opacity=".74"/>
      <stop offset="1" stop-color="#37529c" stop-opacity="0"/>
    </linearGradient>
    <linearGradient id="Unbenannter_Verlauf_19" data-name="Unbenannter Verlauf 19" x1="2957.36" y1="563.53" x2="2966.3" y2="476.85" gradientTransform="translate(296.89 3896.35) rotate(-76.71) scale(1.22 -2.01)" gradientUnits="userSpaceOnUse">
      <stop offset=".05" stop-color="#25a1ff"/>
      <stop offset=".28" stop-color="#1a7cd5" stop-opacity=".74"/>
      <stop offset="1" stop-color="#37529c" stop-opacity="0"/>
    </linearGradient>
    <clipPath id="clippath-2">
      <rect id="rect62862-7" class="cls-1" x="133.7" y="71.76" width="197.49" height="197.49" transform="translate(-52.48 214.3) rotate(-45)"/>
    </clipPath>
    <linearGradient id="Unbenannter_Verlauf_18" data-name="Unbenannter Verlauf 18" x1="-1752.23" y1="-612.54" x2="-1554.74" y2="-612.54" gradientTransform="translate(1885.93 -442.04) scale(1 -1)" gradientUnits="userSpaceOnUse">
      <stop offset="0" stop-color="#073d84"/>
      <stop offset=".84" stop-color="#003c8b" stop-opacity=".64"/>
      <stop offset="1" stop-color="#004eb5" stop-opacity=".6"/>
    </linearGradient>
    <radialGradient id="Unbenannter_Verlauf_17" data-name="Unbenannter Verlauf 17" cx="215.15" cy="164.51" fx="215.15" fy="164.51" r="98.74" gradientTransform="translate(237.94 823.32) rotate(-4.61) scale(.69 -4.38)" gradientUnits="userSpaceOnUse">
      <stop offset="0" stop-color="#2295ff" stop-opacity=".65"/>
      <stop offset="1" stop-color="#2295ff" stop-opacity="0"/>
    </radialGradient>
    <radialGradient id="Unbenannter_Verlauf_7" data-name="Unbenannter Verlauf 7" cx="-728.06" cy="272.35" fx="-728.06" fy="272.35" r="98.74" gradientTransform="translate(6770.86 3646.78) rotate(16.19) scale(9.86 -6.01)" gradientUnits="userSpaceOnUse">
      <stop offset="0" stop-color="#b34d4d" stop-opacity="0"/>
      <stop offset="1" stop-color="red"/>
    </radialGradient>
  </defs>
  <g>
    <path class="cls-6" d="M463.77,114.89v39.12h-6.33v-3.64c-1.09,1.34-2.43,2.34-4.03,3s-3.37,1-5.3,1c-2.71,0-5.14-.6-7.3-1.79-2.16-1.19-3.86-2.89-5.09-5.09-1.23-2.2-1.84-4.72-1.84-7.57s.61-5.36,1.84-7.54,2.93-3.87,5.09-5.06c2.16-1.19,4.6-1.79,7.3-1.79,1.86,0,3.57,.32,5.11,.95,1.55,.63,2.87,1.58,3.96,2.85v-14.45h6.59Zm-10.6,32.77c1.27-.72,2.27-1.75,3.01-3.08s1.11-2.88,1.11-4.64-.37-3.3-1.11-4.64c-.74-1.33-1.74-2.36-3.01-3.08-1.26-.72-2.69-1.08-4.27-1.08s-3,.36-4.27,1.08-2.27,1.75-3.01,3.08c-.74,1.34-1.11,2.88-1.11,4.64s.37,3.3,1.11,4.64,1.74,2.36,3.01,3.08c1.27,.72,2.69,1.08,4.27,1.08s3.01-.36,4.27-1.08Z"/>
    <path class="cls-6" d="M481.7,120.08c-.81-.76-1.21-1.7-1.21-2.82s.4-2.06,1.21-2.82c.81-.75,1.81-1.13,3.01-1.13s2.2,.36,3,1.08c.81,.72,1.21,1.63,1.21,2.72,0,1.16-.4,2.14-1.19,2.93-.79,.79-1.8,1.19-3.03,1.19s-2.2-.38-3.01-1.13Zm-.32,5.77h6.59v28.16h-6.59v-28.16Z"/>
    <path class="cls-6" d="M533.52,125.86v23.88c0,9.91-5.06,14.87-15.18,14.87-2.71,0-5.27-.34-7.7-1.03-2.42-.68-4.43-1.68-6.01-2.98l2.95-4.96c1.23,1.02,2.79,1.84,4.67,2.45,1.88,.62,3.79,.92,5.72,.92,3.09,0,5.36-.7,6.8-2.11,1.44-1.41,2.16-3.55,2.16-6.43v-1.48c-1.13,1.23-2.5,2.16-4.11,2.79-1.62,.63-3.39,.95-5.33,.95-2.67,0-5.09-.57-7.25-1.71-2.16-1.14-3.87-2.75-5.11-4.82-1.25-2.07-1.87-4.45-1.87-7.12s.62-5.04,1.87-7.09c1.25-2.06,2.95-3.65,5.11-4.77,2.16-1.12,4.58-1.69,7.25-1.69,2.04,0,3.89,.33,5.56,1,1.67,.67,3.07,1.69,4.19,3.06v-3.74h6.27Zm-8.88,19.06c1.6-1.49,2.4-3.43,2.4-5.83s-.8-4.27-2.4-5.75c-1.6-1.48-3.65-2.21-6.14-2.21s-4.6,.74-6.2,2.21c-1.6,1.48-2.4,3.39-2.4,5.75s.8,4.33,2.4,5.83c1.6,1.5,3.66,2.24,6.2,2.24s4.54-.75,6.14-2.24Z"/>
    <path class="cls-6" d="M551.45,120.08c-.81-.76-1.21-1.7-1.21-2.82s.4-2.06,1.21-2.82c.81-.75,1.81-1.13,3.01-1.13s2.2,.36,3,1.08c.81,.72,1.21,1.63,1.21,2.72,0,1.16-.4,2.14-1.19,2.93-.79,.79-1.8,1.19-3.03,1.19s-2.2-.38-3.01-1.13Zm-.32,5.77h6.59v28.16h-6.59v-28.16Z"/>
    <path class="cls-6" d="M592.26,152.48c-.77,.63-1.71,1.11-2.82,1.42s-2.28,.47-3.51,.47c-3.09,0-5.48-.81-7.17-2.43-1.69-1.62-2.53-3.97-2.53-7.07v-13.55h-4.64v-5.27h4.64v-6.43h6.59v6.43h7.54v5.27h-7.54v13.39c0,1.37,.33,2.42,1,3.14,.67,.72,1.63,1.08,2.9,1.08,1.48,0,2.71-.39,3.69-1.16l1.84,4.69Z"/>
    <path class="cls-6" d="M626.93,128.52c2.2,1.99,3.29,4.98,3.29,8.99v16.5h-6.22v-3.43c-.81,1.23-1.96,2.17-3.45,2.82-1.49,.65-3.3,.98-5.4,.98s-3.96-.36-5.54-1.08c-1.58-.72-2.8-1.72-3.67-3s-1.29-2.73-1.29-4.35c0-2.53,.94-4.56,2.82-6.09,1.88-1.53,4.84-2.29,8.88-2.29h7.28v-.42c0-1.97-.59-3.48-1.77-4.54-1.18-1.05-2.93-1.58-5.25-1.58-1.58,0-3.14,.25-4.67,.74-1.53,.49-2.82,1.18-3.88,2.06l-2.58-4.8c1.48-1.12,3.25-1.99,5.33-2.58,2.07-.6,4.27-.9,6.59-.9,4.15,0,7.32,.99,9.52,2.98Zm-6.01,19.93c1.28-.76,2.19-1.84,2.71-3.24v-3.27h-6.8c-3.8,0-5.69,1.25-5.69,3.74,0,1.2,.47,2.14,1.42,2.85s2.27,1.05,3.96,1.05,3.12-.38,4.4-1.13Z"/>
    <path class="cls-6" d="M647.62,114.89h6.59v39.12h-6.59v-39.12Z"/>
    <path class="cls-6" d="M718.3,127.33c2.16,1.2,3.86,2.88,5.09,5.06s1.85,4.69,1.85,7.54-.62,5.37-1.85,7.57c-1.23,2.2-2.93,3.89-5.09,5.09-2.16,1.2-4.61,1.79-7.35,1.79-1.93,0-3.7-.33-5.3-1s-2.94-1.67-4.03-3v3.64h-6.27v-39.12h6.59v14.39c1.12-1.23,2.45-2.16,3.98-2.79,1.53-.63,3.21-.95,5.04-.95,2.74,0,5.19,.6,7.35,1.79Zm-2.11,18.98c1.56-1.62,2.35-3.74,2.35-6.38s-.78-4.76-2.35-6.38c-1.56-1.62-3.56-2.42-5.98-2.42-1.58,0-3.01,.36-4.27,1.08-1.26,.72-2.27,1.75-3,3.08-.74,1.34-1.11,2.88-1.11,4.64s.37,3.3,1.11,4.64,1.74,2.36,3,3.08c1.27,.72,2.69,1.08,4.27,1.08,2.42,0,4.42-.81,5.98-2.43Z"/>
    <path class="cls-6" d="M740.47,114.89h6.59v39.12h-6.59v-39.12Z"/>
    <path class="cls-6" d="M791.93,125.86v28.16h-6.27v-3.58c-1.05,1.26-2.37,2.24-3.96,2.93-1.58,.69-3.29,1.03-5.11,1.03-3.76,0-6.72-1.05-8.88-3.14-2.16-2.09-3.24-5.19-3.24-9.31v-16.08h6.59v15.18c0,2.53,.57,4.42,1.71,5.67,1.14,1.25,2.77,1.87,4.88,1.87,2.35,0,4.23-.73,5.62-2.19,1.39-1.46,2.08-3.56,2.08-6.3v-14.24h6.59Z"/>
    <path class="cls-6" d="M835.9,142.04h-22.09c.39,2.07,1.4,3.72,3.03,4.93s3.66,1.82,6.09,1.82c3.09,0,5.64-1.02,7.65-3.06l3.53,4.06c-1.27,1.51-2.87,2.65-4.8,3.43-1.93,.77-4.11,1.16-6.54,1.16-3.09,0-5.82-.61-8.17-1.85-2.35-1.23-4.17-2.94-5.46-5.14-1.28-2.2-1.92-4.68-1.92-7.46s.62-5.21,1.87-7.41c1.25-2.2,2.98-3.91,5.19-5.14,2.21-1.23,4.71-1.84,7.49-1.84s5.19,.61,7.36,1.82c2.16,1.21,3.85,2.92,5.06,5.12,1.21,2.2,1.82,4.74,1.82,7.62,0,.46-.04,1.11-.11,1.95Zm-19.48-9.36c-1.46,1.25-2.35,2.91-2.66,4.98h15.98c-.28-2.04-1.14-3.69-2.58-4.96-1.44-1.26-3.23-1.9-5.38-1.9s-3.89,.62-5.35,1.87Z"/>
    <path class="cls-6" d="M874.26,127.33c2.16,1.2,3.86,2.88,5.09,5.06s1.85,4.69,1.85,7.54-.62,5.37-1.85,7.57c-1.23,2.2-2.93,3.89-5.09,5.09-2.16,1.2-4.61,1.79-7.35,1.79-3.8,0-6.8-1.27-9.02-3.8v13.66h-6.59v-38.38h6.27v3.69c1.09-1.34,2.43-2.34,4.03-3.01,1.6-.67,3.37-1,5.3-1,2.74,0,5.19,.6,7.35,1.79Zm-2.11,18.98c1.56-1.62,2.35-3.74,2.35-6.38s-.78-4.76-2.35-6.38c-1.56-1.62-3.56-2.42-5.98-2.42-1.58,0-3.01,.36-4.27,1.08-1.26,.72-2.27,1.75-3,3.08-.74,1.34-1.11,2.88-1.11,4.64s.37,3.3,1.11,4.64,1.74,2.36,3,3.08c1.27,.72,2.69,1.08,4.27,1.08,2.42,0,4.42-.81,5.98-2.43Z"/>
    <path class="cls-6" d="M912.72,125.54v6.27c-.56-.11-1.07-.16-1.53-.16-2.57,0-4.57,.75-6.01,2.24-1.44,1.5-2.16,3.65-2.16,6.46v13.66h-6.59v-28.16h6.27v4.11c1.9-2.95,5.24-4.43,10.02-4.43Z"/>
    <path class="cls-6" d="M927.59,120.08c-.81-.76-1.21-1.7-1.21-2.82s.4-2.06,1.21-2.82c.81-.75,1.81-1.13,3.01-1.13s2.2,.36,3,1.08c.81,.72,1.21,1.63,1.21,2.72,0,1.16-.4,2.14-1.19,2.93-.79,.79-1.8,1.19-3.03,1.19s-2.2-.38-3.01-1.13Zm-.32,5.77h6.59v28.16h-6.59v-28.16Z"/>
    <path class="cls-6" d="M975.99,128.65c2.14,2.07,3.22,5.15,3.22,9.23v16.13h-6.59v-15.29c0-2.46-.58-4.31-1.74-5.56-1.16-1.25-2.81-1.87-4.96-1.87-2.43,0-4.34,.73-5.75,2.19-1.41,1.46-2.11,3.56-2.11,6.3v14.24h-6.59v-28.16h6.27v3.64c1.09-1.3,2.46-2.28,4.11-2.95,1.65-.67,3.51-1,5.59-1,3.55,0,6.4,1.04,8.54,3.11Z"/>
    <path class="cls-6" d="M1013.48,152.48c-.77,.63-1.71,1.11-2.82,1.42s-2.28,.47-3.51,.47c-3.09,0-5.48-.81-7.17-2.43-1.69-1.62-2.53-3.97-2.53-7.07v-13.55h-4.64v-5.27h4.64v-6.43h6.59v6.43h7.54v5.27h-7.54v13.39c0,1.37,.33,2.42,1,3.14,.67,.72,1.63,1.08,2.9,1.08,1.48,0,2.71-.39,3.69-1.16l1.84,4.69Z"/>
  </g>
  <g>
    <path class="cls-6" d="M626.51,190.26c1.73,1.65,2.6,4.08,2.6,7.28v16.55h-2.4v-4.65c-.83,1.53-2.05,2.73-3.65,3.58-1.6,.85-3.52,1.28-5.75,1.28-2.9,0-5.19-.68-6.88-2.05s-2.52-3.17-2.52-5.4,.77-3.92,2.33-5.28c1.55-1.35,4.02-2.02,7.42-2.02h8.95v-2.1c0-2.43-.66-4.28-1.97-5.55-1.32-1.27-3.24-1.9-5.78-1.9-1.73,0-3.39,.3-4.97,.9-1.58,.6-2.92,1.4-4.02,2.4l-1.25-1.8c1.3-1.17,2.87-2.08,4.7-2.73,1.83-.65,3.75-.97,5.75-.97,3.23,0,5.72,.83,7.45,2.47Zm-3.33,20.48c1.52-1,2.66-2.45,3.42-4.35v-4.9h-8.9c-2.57,0-4.42,.47-5.58,1.4-1.15,.93-1.72,2.22-1.72,3.85s.63,3.04,1.9,4.02c1.27,.98,3.05,1.48,5.35,1.48,2.17,0,4.01-.5,5.52-1.5Z"/>
    <path class="cls-6" d="M675.1,187.98v26.1h-2.4v-5.6c-.87,1.83-2.15,3.26-3.85,4.27-1.7,1.02-3.7,1.53-6,1.53-3.4,0-6.07-.95-8-2.85-1.93-1.9-2.9-4.63-2.9-8.2v-15.25h2.5v15.05c0,2.93,.75,5.17,2.25,6.7s3.62,2.3,6.35,2.3c2.93,0,5.26-.92,6.98-2.75,1.72-1.83,2.57-4.3,2.57-7.4v-13.9h2.5Z"/>
    <path class="cls-6" d="M706.2,190.63c1.9,1.9,2.85,4.63,2.85,8.2v15.25h-2.5v-15.05c0-2.93-.74-5.17-2.22-6.7-1.48-1.53-3.56-2.3-6.22-2.3-3.07,0-5.48,.92-7.25,2.75-1.77,1.83-2.65,4.3-2.65,7.4v13.9h-2.5v-26.1h2.4v5.65c.9-1.83,2.24-3.27,4.02-4.3s3.89-1.55,6.33-1.55c3.27,0,5.85,.95,7.75,2.85Z"/>
    <path class="cls-6" d="M719.15,181.06c-.4-.38-.6-.86-.6-1.42s.2-1.05,.6-1.45c.4-.4,.88-.6,1.45-.6s1.05,.19,1.45,.58c.4,.38,.6,.86,.6,1.42s-.2,1.05-.6,1.45c-.4,.4-.88,.6-1.45,.6s-1.05-.19-1.45-.58Zm.2,6.93h2.5v26.1h-2.5v-26.1Z"/>
    <path class="cls-6" d="M753.35,187.98l-11.8,26.1h-2.55l-11.75-26.1h2.65l10.4,23.35,10.5-23.35h2.55Z"/>
    <path class="cls-6" d="M780.1,201.63h-22.45c.07,2.03,.58,3.84,1.55,5.42,.97,1.58,2.27,2.81,3.92,3.68,1.65,.87,3.51,1.3,5.58,1.3,1.7,0,3.27-.31,4.72-.92s2.66-1.53,3.62-2.73l1.45,1.65c-1.13,1.37-2.56,2.42-4.28,3.15-1.72,.73-3.58,1.1-5.58,1.1-2.6,0-4.92-.57-6.95-1.7-2.03-1.13-3.62-2.7-4.78-4.7-1.15-2-1.72-4.28-1.72-6.85s.54-4.81,1.62-6.83c1.08-2.02,2.58-3.59,4.47-4.72,1.9-1.13,4.03-1.7,6.4-1.7s4.49,.56,6.38,1.67c1.88,1.12,3.37,2.67,4.45,4.67s1.62,4.27,1.62,6.8l-.05,.7Zm-17.35-10.42c-1.47,.82-2.64,1.97-3.53,3.45s-1.39,3.16-1.52,5.02h20c-.1-1.87-.6-3.53-1.5-5-.9-1.47-2.08-2.62-3.55-3.45s-3.12-1.25-4.95-1.25-3.48,.41-4.95,1.22Z"/>
    <path class="cls-6" d="M794.05,189.31c1.7-1.02,3.77-1.52,6.2-1.52v2.45l-.6-.05c-2.9,0-5.17,.91-6.8,2.73-1.63,1.82-2.45,4.34-2.45,7.58v13.6h-2.5v-26.1h2.4v5.7c.8-1.9,2.05-3.36,3.75-4.38Z"/>
    <path class="cls-6" d="M808,213.33c-1.9-.63-3.38-1.43-4.45-2.4l1.15-2c1.07,.9,2.44,1.65,4.12,2.25,1.68,.6,3.44,.9,5.28,.9,2.63,0,4.58-.43,5.83-1.3,1.25-.87,1.88-2.07,1.88-3.6,0-1.1-.34-1.97-1.03-2.6-.68-.63-1.53-1.1-2.53-1.4-1-.3-2.38-.62-4.15-.95-2.07-.37-3.73-.77-5-1.2-1.27-.43-2.35-1.13-3.25-2.1-.9-.97-1.35-2.3-1.35-4,0-2.07,.86-3.77,2.57-5.12,1.72-1.35,4.16-2.02,7.33-2.02,1.67,0,3.32,.23,4.95,.7,1.63,.47,2.97,1.08,4,1.85l-1.15,2c-1.07-.77-2.28-1.35-3.65-1.75-1.37-.4-2.77-.6-4.2-.6-2.43,0-4.27,.45-5.5,1.35-1.23,.9-1.85,2.08-1.85,3.55,0,1.17,.35,2.08,1.05,2.73,.7,.65,1.56,1.13,2.58,1.45,1.02,.32,2.44,.66,4.27,1.03,2.03,.37,3.67,.76,4.92,1.17,1.25,.42,2.31,1.09,3.17,2.03,.87,.93,1.3,2.22,1.3,3.85,0,2.17-.9,3.9-2.7,5.2s-4.33,1.95-7.6,1.95c-2.1,0-4.1-.32-6-.95Z"/>
    <path class="cls-6" d="M831.1,181.06c-.4-.38-.6-.86-.6-1.42s.2-1.05,.6-1.45c.4-.4,.88-.6,1.45-.6s1.05,.19,1.45,.58c.4,.38,.6,.86,.6,1.42s-.2,1.05-.6,1.45c-.4,.4-.88,.6-1.45,.6s-1.05-.19-1.45-.58Zm.2,6.93h2.5v26.1h-2.5v-26.1Z"/>
    <path class="cls-6" d="M857.3,212.43c-.63,.6-1.42,1.06-2.38,1.38s-1.94,.48-2.98,.48c-2.27,0-4.02-.62-5.25-1.88-1.23-1.25-1.85-2.99-1.85-5.23v-17.05h-4.8v-2.15h4.8v-5.7h2.5v5.7h8.3v2.15h-8.3v16.8c0,1.7,.41,2.99,1.23,3.88,.82,.88,2.02,1.33,3.62,1.33s2.98-.48,4.05-1.45l1.05,1.75Z"/>
    <path class="cls-6" d="M884.7,187.98l-13.4,29.65c-1,2.3-2.16,3.93-3.47,4.9-1.32,.97-2.88,1.45-4.67,1.45-1.2,0-2.33-.2-3.38-.6-1.05-.4-1.94-.98-2.67-1.75l1.25-1.9c1.33,1.37,2.95,2.05,4.85,2.05,1.27,0,2.35-.35,3.25-1.05,.9-.7,1.73-1.9,2.5-3.6l1.4-3.15-11.75-26h2.65l10.45,23.35,10.45-23.35h2.55Z"/>
    <path class="cls-6" d="M915.95,212.43c-.63,.6-1.42,1.06-2.38,1.38s-1.94,.48-2.98,.48c-2.27,0-4.02-.62-5.25-1.88-1.23-1.25-1.85-2.99-1.85-5.23v-17.05h-4.8v-2.15h4.8v-5.7h2.5v5.7h8.3v2.15h-8.3v16.8c0,1.7,.41,2.99,1.23,3.88,.82,.88,2.02,1.33,3.62,1.33s2.98-.48,4.05-1.45l1.05,1.75Z"/>
    <path class="cls-6" d="M925.47,212.58c-1.98-1.13-3.54-2.71-4.67-4.72-1.13-2.02-1.7-4.29-1.7-6.83s.57-4.81,1.7-6.83c1.13-2.02,2.69-3.59,4.67-4.72,1.98-1.13,4.21-1.7,6.67-1.7s4.69,.57,6.67,1.7c1.98,1.13,3.54,2.71,4.67,4.72,1.13,2.02,1.7,4.29,1.7,6.83s-.57,4.81-1.7,6.83c-1.13,2.02-2.69,3.59-4.67,4.72-1.98,1.13-4.21,1.7-6.67,1.7s-4.69-.57-6.67-1.7Zm12.05-1.95c1.58-.93,2.83-2.23,3.75-3.9,.92-1.67,1.38-3.57,1.38-5.7s-.46-4.03-1.38-5.7c-.92-1.67-2.17-2.97-3.75-3.9-1.58-.93-3.38-1.4-5.38-1.4s-3.79,.47-5.38,1.4c-1.58,.93-2.83,2.23-3.75,3.9-.92,1.67-1.38,3.57-1.38,5.7s.46,4.03,1.38,5.7c.92,1.67,2.17,2.97,3.75,3.9,1.58,.93,3.38,1.4,5.38,1.4s3.79-.47,5.38-1.4Z"/>
    <path class="cls-6" d="M956.47,212.58c-1.98-1.13-3.54-2.71-4.67-4.72-1.13-2.02-1.7-4.29-1.7-6.83s.57-4.81,1.7-6.83c1.13-2.02,2.69-3.59,4.67-4.72,1.98-1.13,4.21-1.7,6.67-1.7s4.69,.57,6.67,1.7c1.98,1.13,3.54,2.71,4.67,4.72,1.13,2.02,1.7,4.29,1.7,6.83s-.57,4.81-1.7,6.83c-1.13,2.02-2.69,3.59-4.67,4.72-1.98,1.13-4.21,1.7-6.67,1.7s-4.69-.57-6.67-1.7Zm12.05-1.95c1.58-.93,2.83-2.23,3.75-3.9,.92-1.67,1.38-3.57,1.38-5.7s-.46-4.03-1.38-5.7c-.92-1.67-2.17-2.97-3.75-3.9-1.58-.93-3.38-1.4-5.38-1.4s-3.79,.47-5.38,1.4c-1.58,.93-2.83,2.23-3.75,3.9-.92,1.67-1.38,3.57-1.38,5.7s.46,4.03,1.38,5.7c.92,1.67,2.17,2.97,3.75,3.9,1.58,.93,3.38,1.4,5.38,1.4s3.79-.47,5.38-1.4Z"/>
    <path class="cls-6" d="M983.95,176.98h2.5v37.1h-2.5v-37.1Z"/>
    <path class="cls-6" d="M1016.7,189.46c1.97,1.12,3.51,2.68,4.62,4.7,1.12,2.02,1.67,4.31,1.67,6.88s-.56,4.85-1.67,6.85c-1.12,2-2.66,3.57-4.62,4.7-1.97,1.13-4.17,1.7-6.6,1.7s-4.44-.56-6.32-1.67c-1.88-1.12-3.34-2.68-4.38-4.68v6.15h-2.4v-37.1h2.5v16.95c1.03-1.93,2.48-3.44,4.35-4.52s3.95-1.62,6.25-1.62c2.43,0,4.63,.56,6.6,1.67Zm-1.35,21.17c1.6-.93,2.86-2.23,3.78-3.9,.92-1.67,1.38-3.57,1.38-5.7s-.46-4.03-1.38-5.7c-.92-1.67-2.17-2.97-3.78-3.9-1.6-.93-3.4-1.4-5.4-1.4s-3.79,.47-5.38,1.4c-1.58,.93-2.83,2.23-3.75,3.9-.92,1.67-1.38,3.57-1.38,5.7s.46,4.03,1.38,5.7c.92,1.67,2.17,2.97,3.75,3.9,1.58,.93,3.38,1.4,5.38,1.4s3.8-.47,5.4-1.4Z"/>
    <path class="cls-6" d="M1034.27,212.58c-1.98-1.13-3.54-2.71-4.67-4.72-1.13-2.02-1.7-4.29-1.7-6.83s.57-4.81,1.7-6.83c1.13-2.02,2.69-3.59,4.67-4.72,1.98-1.13,4.21-1.7,6.67-1.7s4.69,.57,6.67,1.7c1.98,1.13,3.54,2.71,4.67,4.72,1.13,2.02,1.7,4.29,1.7,6.83s-.57,4.81-1.7,6.83c-1.13,2.02-2.69,3.59-4.67,4.72-1.98,1.13-4.21,1.7-6.67,1.7s-4.69-.57-6.67-1.7Zm12.05-1.95c1.58-.93,2.83-2.23,3.75-3.9,.92-1.67,1.38-3.57,1.38-5.7s-.46-4.03-1.38-5.7c-.92-1.67-2.17-2.97-3.75-3.9-1.58-.93-3.38-1.4-5.38-1.4s-3.79,.47-5.38,1.4c-1.58,.93-2.83,2.23-3.75,3.9-.92,1.67-1.38,3.57-1.38,5.7s.46,4.03,1.38,5.7c.92,1.67,2.17,2.97,3.75,3.9,1.58,.93,3.38,1.4,5.38,1.4s3.79-.47,5.38-1.4Z"/>
    <path class="cls-6" d="M1077.39,214.08l-8.95-11.65-8.95,11.65h-2.85l10.35-13.45-9.8-12.65h2.85l8.4,10.85,8.4-10.85h2.8l-9.8,12.65,10.5,13.45h-2.95Z"/>
  </g>
  <g>
    <polygon id="background" class="cls-5" points="372.09 170.5 232.45 30.85 217.04 46.26 201.62 30.84 186.2 46.26 170.8 30.85 31.15 170.5 170.8 310.15 186.2 294.74 201.62 310.16 217.04 294.74 232.45 310.15 372.09 170.5"/>
    <g id="square_bottom" data-name="square bottom" class="cls-9">
      <g class="cls-2">
        <rect id="rect35896-3-4-6-6-2" class="cls-4" x="31.5" y="-14.53" width="279.59" height="355.63"/>
        <rect id="rect35917-90-7-5-4-2" class="cls-13" x="31.5" y="8.69" width="279.59" height="332.41"/>
        <rect id="rect35924-9-9-9-42-2" class="cls-15" x="-108.38" y="31.15" width="279.59" height="279.59"/>
        <polygon id="polygon35937-3-9-0-7-2" class="cls-17" points="199.86 379.29 120.04 80.43 397.51 6.28 477.39 305.08 199.86 379.29"/>
        <polygon id="polygon35948-65-4-8-5-2" class="cls-16" points="11.99 183.47 356.36 127.88 380.77 278.86 36.4 334.44 11.99 183.47"/>
        <polygon id="polygon35957-1-3-2-4-2" class="cls-14" points="-.92 -18.54 339.86 20.34 321.4 298.78 -19.37 259.81 -.92 -18.54"/>
        <rect id="rect35968-1-9-3-10-2" class="cls-11" x="-7.52" y="149.58" width="367.25" height="189.22"/>
      </g>
    </g>
    <g id="square_middle" data-name="square middle" class="cls-10">
      <g class="cls-7">
        <rect id="rect35803-7-5-9-32-2" class="cls-4" x="62.31" y="-14.56" width="279.62" height="355.67"/>
        <rect id="rect35824-0-2-8-75-2" class="cls-3" x="62.31" y="8.67" width="279.62" height="332.44"/>
        <rect id="rect35826-6-7-8-5-2" class="cls-4" x="-23.88" y="-14.32" width="365.51" height="365.51"/>
        <rect id="rect35843-7-8-8-7-2" class="cls-12" x="9.13" y="-41.44" width="460.61" height="358.44"/>
        <path id="path35860-8-7-6-4-2" class="cls-18" d="M593.13,414.33H-189.6V-291.64H593.13V414.33Z"/>
        <polygon id="polygon35877-4-4-8-9-2" class="cls-21" points="370.46 -77.82 430.65 270.72 69.27 333.15 9.08 -15.44 370.46 -77.82"/>
        <polygon id="polygon35886-19-00-4-03-3" class="cls-19" points="57.18 -26.53 397.99 3.13 371.94 317 32.83 215.24 57.18 -26.53"/>
        <polygon id="polygon35886-19-00-4-03-4" class="cls-24" points="-43.69 249.91 19.86 -19.16 233.42 23.64 169.81 292.64 -43.69 249.91"/>
      </g>
    </g>
    <g id="square_top" data-name="square top">
      <g class="cls-8">
        <rect id="rect62862-8" class="cls-22" x="133.7" y="71.76" width="197.49" height="197.49" transform="translate(-52.48 214.3) rotate(-45)"/>
        <rect id="rect62862" class="cls-23" x="133.7" y="71.76" width="197.49" height="197.49" transform="translate(-52.48 214.3) rotate(-45)"/>
        <rect id="rect62862-7-2" data-name="rect62862-7" class="cls-20" x="133.7" y="71.76" width="197.49" height="197.49" transform="translate(-52.48 214.3) rotate(-45)"/>
      </g>
    </g>
  </g>
</svg>