<?xml version="1.0" standalone="no"?>
<!DOCTYPE svg PUBLIC "-//W3C//DTD SVG 20010904//EN"
 "http://www.w3.org/TR/2001/REC-SVG-20010904/DTD/svg10.dtd">
<svg version="1.0" xmlns="http://www.w3.org/2000/svg"
 width="512.000000pt" height="512.000000pt" viewBox="0 0 512.000000 512.000000"
 preserveAspectRatio="xMidYMid meet">
<metadata>
Created by potrace 1.16, written by Peter Selinger 2001-2019
</metadata>
<g transform="translate(0.000000,512.000000) scale(0.100000,-0.100000)"
fill="#000000" stroke="none">
<path fill="#000000" stroke="none" d="M4153 4572 c-145 -81 -263 -150 -263
-153 0 -3 18 -15 40 -28 22 -12 40 -20 40 -17 0 3 9 -3 21 -15 11 -11 27 -18
35 -15 10 4 12 2 8 -6 -5 -8 -2 -9 10 -5 9 4 15 3 12 -2 -8 -12 72 -53 86 -45
7 4 10 3 5 -1 -10 -11 70 -58 85 -49 6 4 8 3 5 -4 -7 -10 116 -85 141 -85 6 0
12 -3 12 -7 0 -4 10 -12 23 -17 25 -12 62 1 52 18 -4 5 2 6 11 2 13 -5 15 -3
9 7 -5 8 -4 11 3 6 12 -7 62 13 62 26 0 4 6 8 14 8 8 0 22 7 30 16 9 8 16 13
16 9 0 -3 13 2 29 11 17 10 28 21 25 26 -3 4 3 5 12 1 13 -5 15 -3 9 7 -5 9
-4 11 3 6 13 -8 72 23 72 38 0 5 3 7 6 3 9 -8 64 21 64 34 0 6 5 7 10 4 6 -3
10 -1 10 5 0 6 5 8 10 5 6 -3 10 -1 10 5 0 6 5 8 10 5 6 -3 10 -1 10 4 0 6 7
11 16 11 8 0 12 4 9 10 -3 5 0 8 7 5 7 -2 22 2 33 11 24 18 35 9 -137 105 -71
39 -133 67 -140 63 -6 -4 -8 -3 -4 4 7 11 -220 142 -245 142 -8 -1 -132 -67
-276 -148z"/>
<path fill="#000000" stroke="none" d="M1492 4273 c-144 -80 -262 -149 -262
-153 0 -3 39 -28 88 -55 48 -27 95 -55 105 -63 9 -8 17 -12 17 -8 0 4 13 -2
29 -13 16 -12 34 -21 40 -21 6 0 11 -4 11 -10 0 -5 5 -10 11 -10 9 0 78 -37
149 -80 8 -5 83 -46 165 -91 83 -45 157 -88 165 -95 8 -7 17 -12 20 -11 3 0
28 -12 55 -27 28 -16 75 -43 105 -60 30 -17 68 -37 83 -45 l28 -15 -67 -33
c-36 -18 -112 -60 -167 -92 -115 -66 -179 -102 -253 -143 l-51 -28 -269 150
-268 149 -30 -18 c-17 -10 -138 -78 -269 -151 -130 -73 -237 -133 -237 -134 0
-1 117 -67 260 -147 142 -79 259 -147 260 -150 0 -4 -111 -69 -247 -145 -137
-75 -255 -141 -263 -146 -11 -7 -83 28 -266 131 -138 77 -259 144 -268 147
-15 6 -17 -1 -14 -51 l3 -58 270 -152 c1199 -674 1844 -1035 1858 -1041 11 -4
82 30 199 96 101 57 204 114 230 128 26 13 45 29 41 35 -3 6 -1 7 6 3 6 -4 46
12 89 36 42 24 89 49 104 57 15 7 25 17 22 22 -3 5 2 6 10 3 9 -3 16 -1 16 5
0 6 3 10 8 9 7 -2 101 50 112 62 3 3 10 6 16 7 8 1 454 247 514 283 8 5 96 54
195 109 342 188 510 283 516 293 3 5 9 9 13 9 20 -3 26 0 20 11 -4 7 -3 8 5 4
6 -4 23 0 36 8 22 15 25 24 25 77 0 33 -4 59 -8 57 -5 -1 -128 -70 -274 -151
l-265 -148 -254 142 c-140 78 -255 142 -257 144 -1 1 115 67 257 146 143 79
257 147 253 150 -4 4 -125 73 -269 153 l-262 147 -253 -142 c-139 -78 -255
-143 -258 -144 -7 -5 -68 26 -208 107 -26 15 -67 38 -92 51 -25 13 -61 34 -80
45 -19 12 -53 31 -75 42 -22 11 -55 29 -73 39 l-33 19 58 33 c32 18 61 32 66
31 4 -1 7 3 7 9 0 5 5 7 10 4 6 -3 10 -1 10 5 0 6 3 9 8 7 10 -7 32 19 24 29
-4 4 -2 4 5 0 13 -7 60 11 81 31 7 7 18 13 23 13 6 0 7 5 3 12 -4 6 -3 8 3 5
6 -4 58 19 115 52 l105 58 39 -23 c21 -13 53 -30 69 -38 17 -8 57 -30 90 -49
129 -72 151 -85 185 -105 118 -69 151 -83 165 -69 7 8 28 20 47 27 18 8 35 17
38 20 3 3 57 34 120 69 63 34 122 66 130 71 8 5 54 31 102 56 l86 48 -23 18
c-12 10 -33 22 -46 28 -13 5 -46 23 -74 39 -27 17 -70 41 -95 54 -25 14 -65
36 -90 50 -25 15 -65 37 -90 50 -25 13 -63 34 -84 46 -48 28 -20 39 -333 -137
l-232 -130 -48 25 c-26 13 -70 38 -98 53 -27 16 -68 38 -90 49 -22 12 -58 32
-80 46 -22 13 -58 34 -80 45 -42 22 -111 60 -180 100 -22 12 -57 32 -78 44
-21 11 -59 33 -85 48 -26 15 -65 36 -87 47 -22 12 -58 32 -80 46 -22 13 -59
34 -82 45 -23 11 -45 24 -48 30 -3 5 -14 10 -23 10 -10 0 -135 -66 -280 -147z"/>
<path fill="#000000" stroke="none" d="M1890 2539 c3 -4 41 -25 85 -48 44 -23
87 -46 95 -51 41 -26 169 -97 195 -110 47 -22 549 -302 558 -310 5 -4 -33 -31
-85 -59 -51 -28 -118 -66 -149 -84 -183 -106 -281 -158 -293 -155 -18 4 -1055
582 -1056 588 0 5 37 27 113 67 26 14 47 29 47 34 0 5 3 8 8 8 20 -3 32 2 26
13 -4 7 -3 8 5 4 7 -5 29 3 51 18 22 14 44 26 50 26 5 0 10 5 10 11 0 5 5 7
10 4 6 -3 10 -3 10 2 0 4 15 15 33 23 17 7 37 18 42 22 6 5 35 21 65 37 l55
28 60 -31 c33 -17 62 -34 65 -37z"/>
<path fill="#000000" stroke="none" d="M152 2259 l3 -60 935 -525 c514 -289
958 -538 985 -553 146 -81 172 -96 197 -113 15 -10 29 -14 32 -9 3 5 29 21 58
36 29 15 56 32 59 37 3 5 8 9 10 8 8 -4 59 24 59 32 0 4 6 7 13 6 6 -2 11 2
10 9 -2 7 4 10 12 7 8 -4 15 -1 15 6 0 6 4 9 9 5 5 -3 12 -1 16 5 4 6 11 8 16
5 5 -4 9 -2 9 3 0 8 36 29 53 30 5 0 15 9 24 19 9 11 12 12 8 3 -4 -9 -1 -8 8
3 9 10 19 19 24 20 4 1 7 6 5 10 -1 5 2 6 8 2 6 -4 17 -1 25 5 8 7 15 9 15 4
0 -5 5 -1 11 9 6 9 14 15 20 12 5 -4 12 1 15 9 3 9 10 14 14 11 5 -3 15 1 23
9 8 8 17 12 21 9 3 -4 6 -1 6 6 0 7 5 9 10 6 6 -3 13 1 16 9 3 9 10 14 14 11
9 -5 112 54 118 68 2 4 7 5 12 2 5 -3 14 0 22 7 7 7 43 28 81 46 37 18 67 38
67 44 0 6 3 8 7 5 3 -4 15 0 25 10 10 9 18 12 18 8 0 -4 9 0 20 10 11 10 20
15 20 12 0 -4 9 1 20 11 12 9 23 16 26 14 3 -2 12 5 21 15 8 10 11 12 8 5 -6
-11 -3 -12 14 -3 11 7 21 16 21 21 0 6 3 9 8 8 13 -3 62 25 62 35 0 6 3 8 6 4
3 -3 23 5 44 18 21 13 41 21 44 18 3 -4 6 -2 6 4 0 5 18 18 40 28 22 10 40 22
40 27 0 4 6 7 13 5 6 -1 11 3 10 10 -2 8 4 10 14 6 12 -5 14 -3 8 7 -5 8 -4
11 2 7 11 -7 69 18 78 34 4 5 11 7 16 4 5 -4 9 -1 9 5 0 6 5 8 10 5 6 -3 10
-2 10 4 0 5 9 13 20 16 11 4 17 11 14 17 -4 6 -2 8 4 4 12 -7 92 31 92 45 0 5
3 8 8 8 19 -3 33 2 27 11 -3 6 1 7 9 4 9 -3 16 -1 16 6 0 6 4 8 10 5 6 -3 10
-1 10 5 0 6 5 8 10 5 6 -3 10 -1 10 5 0 6 5 8 10 5 6 -3 10 -1 10 5 0 6 4 8
10 5 6 -3 10 -1 10 4 0 6 7 11 15 11 8 0 15 5 15 11 0 5 5 7 10 4 6 -3 10 -1
10 5 0 6 4 8 10 5 6 -3 10 -1 10 5 0 6 4 8 10 5 6 -3 10 -3 10 2 0 4 18 17 40
27 22 11 40 24 40 29 0 6 3 8 6 5 3 -4 33 9 66 28 33 19 64 34 69 34 5 0 9 5
9 11 0 5 4 8 9 4 6 -3 14 2 19 12 11 22 14 123 4 123 -17 -1 -81 -47 -75 -54
4 -4 0 -4 -10 0 -10 3 -17 1 -17 -5 0 -6 -3 -10 -7 -9 -15 3 -43 -14 -37 -23
3 -5 -3 -6 -12 -2 -13 5 -15 3 -9 -7 5 -8 4 -11 -3 -6 -14 8 -74 -28 -64 -39
4 -5 2 -5 -5 -1 -14 8 -76 -28 -66 -38 4 -4 0 -4 -10 0 -10 3 -17 1 -17 -5 0
-6 -3 -10 -7 -9 -15 3 -62 -25 -57 -33 3 -5 -2 -6 -10 -3 -9 3 -16 1 -16 -5 0
-6 -3 -10 -7 -9 -15 3 -62 -25 -57 -33 3 -5 -3 -6 -12 -2 -12 4 -15 3 -10 -5
5 -8 2 -10 -8 -6 -9 3 -16 1 -16 -5 0 -6 -3 -10 -7 -9 -14 3 -63 -25 -58 -32
3 -4 -1 -7 -8 -6 -20 2 -156 -77 -150 -87 3 -6 1 -7 -6 -3 -6 4 -17 3 -24 -2
-7 -6 -96 -57 -199 -115 -103 -57 -184 -107 -181 -111 4 -4 -1 -4 -11 0 -15 6
-17 4 -11 -6 5 -8 4 -11 -3 -6 -14 8 -74 -28 -64 -39 4 -5 2 -5 -5 -1 -14 8
-76 -28 -66 -38 4 -4 -1 -4 -11 0 -15 6 -17 4 -11 -6 5 -8 4 -11 -2 -7 -13 8
-166 -77 -156 -87 4 -4 -1 -4 -11 0 -15 6 -17 4 -11 -6 5 -8 4 -11 -3 -6 -14
8 -74 -28 -64 -39 4 -5 2 -5 -5 -1 -14 8 -76 -28 -66 -38 4 -4 0 -4 -10 0 -11
4 -17 1 -17 -7 0 -7 -2 -10 -6 -7 -3 3 -42 -15 -87 -41 -45 -25 -99 -55 -119
-66 -20 -10 -34 -23 -31 -28 3 -6 1 -7 -4 -4 -14 9 -115 -47 -106 -58 5 -4 3
-5 -3 -2 -7 4 -32 -5 -57 -19 -39 -21 -49 -23 -69 -13 -13 6 -369 205 -793
442 -423 237 -897 501 -1053 588 l-283 158 3 -60z"/>
<path fill="#000000" stroke="none" d="M150 1662 l0 -59 1067 -599 c586 -329
1071 -599 1077 -599 23 1 115 58 109 68 -3 6 -1 7 6 3 11 -7 143 59 149 76 2
4 8 6 13 2 5 -3 9 0 9 6 0 6 4 9 8 6 5 -3 19 4 30 15 12 11 22 17 22 14 0 -3
17 5 38 18 20 12 54 31 74 42 20 10 34 23 31 28 -3 6 -1 7 5 3 11 -6 60 18 73
37 3 5 9 8 13 8 20 -3 26 0 20 11 -4 6 -3 8 3 5 14 -9 95 37 86 48 -5 4 -2 5
5 1 8 -5 29 3 53 18 21 15 39 23 39 19 0 -5 4 -3 8 2 8 13 151 95 163 95 5 0
9 5 9 11 0 5 5 7 10 4 6 -3 10 -1 10 6 0 7 3 10 6 6 3 -3 34 12 69 33 35 21
66 36 69 33 3 -4 6 0 6 7 0 7 3 11 6 7 3 -3 15 3 27 13 11 11 24 17 28 14 4
-2 10 0 14 5 3 6 25 20 50 32 24 12 42 26 39 30 -3 5 3 6 12 2 13 -5 15 -3 9
7 -5 9 -4 11 3 6 10 -6 143 63 162 84 3 3 12 6 20 8 8 2 32 14 52 28 21 13 42
24 47 24 5 0 14 7 21 15 7 8 16 12 21 9 5 -3 9 0 9 6 0 6 5 8 10 5 6 -3 10 -3
10 2 0 4 23 19 50 32 28 14 50 29 50 35 0 5 3 6 6 3 4 -4 19 2 34 13 14 10 33
20 41 22 8 2 16 6 19 9 3 4 29 19 59 35 84 45 91 50 84 58 -4 4 0 4 10 0 10
-3 17 -1 17 6 0 6 4 8 10 5 6 -3 10 -1 10 5 0 6 5 8 10 5 6 -3 10 -1 10 4 0 6
7 11 15 11 8 0 15 4 15 10 0 5 6 7 14 4 21 -8 33 23 34 84 1 44 -2 53 -14 48
-9 -3 -18 -6 -20 -6 -3 0 -2 -4 1 -10 3 -6 -1 -7 -9 -4 -9 3 -16 1 -16 -6 0
-6 -4 -9 -9 -5 -6 3 -14 -2 -19 -11 -5 -9 -11 -16 -13 -15 -14 2 -48 -13 -44
-19 3 -4 -3 -7 -13 -6 -9 0 -16 -4 -15 -11 2 -8 -4 -10 -14 -6 -11 4 -14 3 -9
-5 5 -8 2 -10 -8 -6 -9 3 -16 1 -16 -5 0 -6 -3 -10 -7 -9 -15 3 -62 -25 -57
-33 3 -5 -3 -6 -12 -2 -11 4 -15 2 -11 -4 4 -6 1 -10 -6 -9 -20 2 -426 -228
-420 -238 4 -5 1 -6 -5 -2 -15 9 -55 -18 -44 -29 4 -5 2 -5 -5 -2 -16 10 -44
-3 -36 -16 3 -6 1 -7 -5 -3 -15 9 -55 -18 -44 -29 4 -5 1 -5 -5 -1 -15 8 -74
-24 -67 -36 3 -4 -3 -5 -12 -1 -12 4 -15 3 -10 -5 5 -8 2 -10 -8 -6 -9 3 -16
1 -16 -5 0 -6 -6 -10 -12 -8 -7 1 -12 -3 -11 -10 2 -8 -4 -10 -14 -6 -11 4
-14 3 -9 -5 5 -8 1 -10 -10 -5 -12 4 -15 3 -10 -5 5 -8 2 -10 -8 -6 -9 3 -16
1 -16 -5 0 -6 -6 -10 -12 -9 -7 2 -12 -2 -11 -9 2 -8 -4 -10 -14 -6 -11 4 -14
3 -9 -5 5 -8 1 -10 -10 -5 -13 5 -15 3 -9 -7 5 -9 4 -11 -3 -6 -14 8 -73 -24
-66 -36 3 -4 -3 -5 -12 -1 -13 5 -15 3 -9 -7 5 -8 4 -11 -3 -6 -14 8 -74 -28
-64 -39 4 -5 2 -5 -5 -1 -13 7 -117 -47 -107 -56 3 -3 -1 -5 -8 -4 -21 2 -407
-217 -401 -228 3 -5 1 -6 -5 -2 -14 9 -182 -85 -175 -98 3 -5 1 -6 -5 -2 -14
8 -74 -28 -64 -39 4 -5 1 -5 -6 -1 -7 4 -28 -2 -47 -14 l-35 -21 -1032 576
c-568 317 -1052 588 -1075 601 l-43 25 0 -59z"/>
</g>
</svg>
