<?xml version="1.0" encoding="UTF-8"?>
<svg id="Ebene_1" xmlns="http://www.w3.org/2000/svg" version="1.1" viewBox="0 0 100 100">
  <!-- Generator: Adobe Illustrator 29.5.1, SVG Export Plug-In . SVG Version: 2.1.0 Build 141)  -->
  <defs>
    <style>
      .st0 {
        display: none;
      }
    </style>
  </defs>
  <g id="Layer_1" class="st0">
    <g>
      <path d="M50,2.3C23.7,2.3,2.3,23.7,2.3,50s21.4,47.8,47.8,47.8,47.8-21.4,47.8-47.8S76.3,2.3,50,2.3ZM50,92.3c-23.3,0-42.3-19-42.3-42.3S26.7,7.8,50,7.8s42.3,19,42.3,42.3-19,42.2-42.3,42.2Z"/>
      <path d="M69.8,32.7l-29.1,29.1-10.5-10.4c-1.1-1.1-2.8-1.1-3.9,0s-1.1,2.8,0,3.9l11.7,11.7c.7.7,1.7,1.1,2.7,1.1s1.9-.4,2.7-1.1l30.3-30.3c1.1-1.1,1.1-2.8,0-3.9-1.1-1.1-2.9-1.1-3.9,0v-.1Z"/>
    </g>
  </g>
  <path d="M94.42,17.18c-1.17-1.17-3.07-1.17-4.24,0l-56.59,56.59-23.73-22.36c-1.21-1.14-3.1-1.08-4.24.13-1.14,1.21-1.08,3.1.13,4.24l24.14,22.74c1,1,2.34,1.51,3.68,1.51s2.59-.46,3.63-1.39c.04-.04.09-.08.13-.12l57.1-57.1c1.17-1.17,1.17-3.07,0-4.24Z"/>
</svg>