<?xml version="1.0" encoding="UTF-8"?>
<svg id="Layer_2" xmlns="http://www.w3.org/2000/svg" version="1.1" viewBox="0 0 100 100">
  <!-- Generator: Adobe Illustrator 29.5.1, SVG Export Plug-In . SVG Version: 2.1.0 Build 141)  -->
  <g>
    <path d="M55.75,14.63h-13.2c-.41-5.54-5.13-9.94-10.84-9.94h-4.48c-5.62,0-10.27,4.4-10.68,9.94H3.59c-1.96,0-3.42,1.47-3.42,3.42l3.02,52.48c.33,6.36,5.54,11.33,11.98,11.33h19.35l-.68-4.4H15.08c-3.99,0-7.25-3.1-7.5-7.09l-2.93-51.18h50.04l-.86,14.11,4.73-2.49.77-12.59v-.16c-.08-1.87-1.63-3.42-3.59-3.42ZM21.03,14.63c.41-3.1,3.02-5.46,6.19-5.46h4.48c3.18,0,5.87,2.44,6.27,5.46h-16.95Z"/>
    <path d="M42.79,36.31v2.83l-4.56,2.4v-5.23c0-1.22.98-2.28,2.28-2.28s2.28,1.06,2.28,2.28Z"/>
    <path d="M20.87,36.31v14.4l-4.56,2.4v-16.8c0-1.3,1.06-2.28,2.28-2.28,1.3,0,2.28,1.06,2.28,2.28Z"/>
    <path d="M32.28,33.05v11.64l-4.56,2.4v-14.04c0-1.3,1.06-2.28,2.28-2.28,1.3,0,2.28,1.06,2.28,2.28Z"/>
    <polygon points="32.21 57.15 32.21 57.16 29.89 58.39 32.21 57.15"/>
  </g>
  <path d="M75.74,31.8c-.68-.68-1.53-1.03-2.39-1.03-.53,0-1.06.14-1.55.42l-13.7,7.23-4.73,2.5-10.58,5.59-4.56,2.4-5.95,3.15-4.56,2.4-10.14,5.35c-1.35.75-2.13,2.31-1.94,3.87.26,1.64,1.36,2.79,2.91,3.06l20.81,3.74,1.08,6.97.68,4.4,1.61,10.39c.26,1.63,1.43,2.79,2.91,3.06h.51c1.3,0,2.53-.74,3.17-2.04l27.14-57.18c.64-1.43.38-3.2-.72-4.29ZM56.3,68.09l-5.62,11.85-4.02,8.47-1.03-6.64-.68-4.36-1.17-7.59-.49-3.16-3.15-.57-18.53-3.32,7.59-4.01.68-.36,2.32-1.23,6.1-3.21,4.48-2.37,10.27-5.42,4.73-2.5,13.49-7.12-14.98,31.56Z"/>
  <g>
    <path d="M95.92,43.01c-.39,0-.79-.1-1.15-.32l-10.94-6.52c-1.06-.63-1.41-2.01-.78-3.07.63-1.06,2.01-1.41,3.07-.78l10.94,6.52c1.06.63,1.41,2.01.78,3.07-.42.7-1.16,1.09-1.93,1.09Z"/>
    <path d="M85.67,28.84c-.91,0-1.76-.55-2.1-1.45-.44-1.16.15-2.45,1.31-2.89l11.92-4.48c1.16-.43,2.45.15,2.89,1.31.44,1.16-.15,2.45-1.31,2.89l-11.92,4.48c-.26.1-.53.14-.79.14Z"/>
    <path d="M80.11,23.53c-.23,0-.46-.04-.69-.11-1.18-.38-1.82-1.64-1.44-2.82l3.93-12.12c.38-1.18,1.65-1.82,2.82-1.44,1.18.38,1.82,1.64,1.44,2.82l-3.93,12.12c-.31.95-1.19,1.55-2.13,1.55Z"/>
    <path d="M72.5,24.57c-.73,0-1.44-.35-1.87-1.01l-7.02-10.62c-.68-1.03-.4-2.42.63-3.11,1.03-.68,2.42-.4,3.11.63l7.02,10.62c.68,1.03.4,2.42-.63,3.11-.38.25-.81.37-1.23.37Z"/>
  </g>
</svg>