<?xml version="1.0" encoding="utf-8"?>
<!-- Generator: Adobe Illustrator 25.4.1, SVG Export Plug-In . SVG Version: 6.00 Build 0)  -->
<svg version="1.1" id="lni_lni-checkmark-circle" xmlns="http://www.w3.org/2000/svg" xmlns:xlink="http://www.w3.org/1999/xlink"
	 x="0px" y="0px" viewBox="0 0 52 52" style="enable-background:new 0 0 52 52;" xml:space="preserve">
<g>
	<path d="M26,51C12.2,51,1.1,39.8,1.1,26S12.2,1.1,26,1.1S51,12.2,51,26S39.8,51,26,51z M26,3.9C13.8,3.9,3.9,13.8,3.9,26
		S13.8,48.2,26,48.2s22.2-10,22.2-22.2S38.2,3.9,26,3.9z"/>
</g>
<g>
	<circle cx="25.6" cy="12.4" r="2"/>
	<path d="M29.6,39.8H27V19.5c0-1.2-0.9-2.1-2.1-2.1h-2.4c-0.5,0-0.9,0.4-0.9,0.9s0.4,0.9,0.9,0.9h2.4c0.2,0,0.3,0.1,0.3,0.3v20.2
		h-2.6c-0.5,0-0.9,0.4-0.9,0.9s0.4,0.9,0.9,0.9h7.1c0.5,0,0.9-0.4,0.9-0.9S30.1,39.8,29.6,39.8z"/>
</g>
</svg>
