<?xml version="1.0" encoding="utf-8"?>
<!-- Generator: Adobe Illustrator 25.4.1, SVG Export Plug-In . SVG Version: 6.00 Build 0)  -->
<svg version="1.1" id="Layer_2_1_" xmlns="http://www.w3.org/2000/svg" xmlns:xlink="http://www.w3.org/1999/xlink" x="0px" y="0px"
	 viewBox="0 0 100 100" style="enable-background:new 0 0 100 100;" xml:space="preserve">
<g>
	<path d="M50,80.2c-5.3,0-9.9,4.3-9.9,9.9c0,5.6,4.3,9.9,9.9,9.9s9.9-4.3,9.9-9.9C59.9,84.5,55.3,80.2,50,80.2z"/>
	<path d="M50,40.1c-5.3,0-9.9,4.3-9.9,9.9s4.3,9.9,9.9,9.9s9.9-4.3,9.9-9.9S55.3,40.1,50,40.1z"/>
	<path d="M50,0c-5.3,0-9.9,4.3-9.9,9.9s4.3,9.9,9.9,9.9s9.9-4.3,9.9-9.9S55.3,0,50,0z"/>
</g>
</svg>
