<?xml version="1.0" encoding="UTF-8"?>
<svg id="Layer_2" xmlns="http://www.w3.org/2000/svg" version="1.1" viewBox="0 0 100 100">
  <!-- Generator: Adobe Illustrator 29.6.1, SVG Export Plug-In . SVG Version: 2.1.1 Build 9)  -->
  <polygon points="22.75 56.45 22.75 56.46 20.27 57.77 22.75 56.45"/>
  <path d="M69.24,29.37c-.73-.73-1.63-1.1-2.55-1.1-.57,0-1.13.15-1.66.45l-14.63,7.72-5.05,2.67-11.3,5.97-4.87,2.56-6.36,3.36-4.87,2.56-10.83,5.71c-1.44.8-2.28,2.47-2.07,4.13.28,1.75,1.45,2.98,3.11,3.27l22.23,4,1.15,7.45.73,4.7,1.72,11.1c.28,1.74,1.53,2.98,3.11,3.27h.54c1.39,0,2.7-.79,3.39-2.18l28.99-61.08c.68-1.53.41-3.42-.77-4.58h0ZM48.48,68.13l-6,12.66-4.29,9.05-1.1-7.09-.73-4.66-1.25-8.11-.52-3.38-3.36-.61-19.79-3.55,8.11-4.28.73-.38,2.48-1.31,6.52-3.43,4.79-2.53,10.97-5.79,5.05-2.67,14.41-7.61-16,33.71v-.02Z"/>
  <g>
    <path d="M90.8,41.34c-.42,0-.84-.11-1.23-.34l-11.69-6.96c-1.13-.67-1.51-2.15-.83-3.28.67-1.13,2.15-1.51,3.28-.83l11.69,6.96c1.13.67,1.51,2.15.83,3.28-.45.75-1.24,1.16-2.06,1.16h.01Z"/>
    <path d="M79.85,26.21c-.97,0-1.88-.59-2.24-1.55-.47-1.24.16-2.62,1.4-3.09l12.73-4.79c1.24-.46,2.62.16,3.09,1.4s-.16,2.62-1.4,3.09l-12.73,4.79c-.28.11-.57.15-.84.15Z"/>
    <path d="M73.91,20.53c-.25,0-.49-.04-.74-.12-1.26-.41-1.94-1.75-1.54-3.01l4.2-12.95c.41-1.26,1.76-1.94,3.01-1.54,1.26.41,1.94,1.75,1.54,3.01l-4.2,12.95c-.33,1.01-1.27,1.66-2.28,1.66Z"/>
    <path d="M65.78,21.64c-.78,0-1.54-.37-2-1.08l-7.5-11.34c-.73-1.1-.43-2.59.67-3.32,1.1-.73,2.59-.43,3.32.67l7.5,11.34c.73,1.1.43,2.59-.67,3.32-.41.27-.87.4-1.31.4h-.01Z"/>
  </g>
</svg>