<?xml version="1.0" encoding="UTF-8"?>
<svg id="Layer_1" xmlns="http://www.w3.org/2000/svg" version="1.1" viewBox="0 0 100 100">
  <!-- Generator: Adobe Illustrator 29.5.1, SVG Export Plug-In . SVG Version: 2.1.0 Build 141)  -->
  <path d="M25.7,27.8h-8.6c8.2-11.5,22.3-17.8,36.9-15.6,18.5,2.8,32.4,19,32.4,37.8,0,21.1-17.1,38.2-38.2,38.2-14.6,0-28.2-8.5-34.5-21.7-.7-1.5-2.7-2.1-4.1-1-1.1.8-1.4,2.3-.8,3.5,7.2,15.1,22.7,24.8,39.4,24.8,24.2,0,43.8-19.7,43.8-43.8,0-24.1-19.6-43.7-43.7-43.8-13.8,0-26.6,6.5-34.8,17.2v-7.9c0-1.7-1.5-3-3.3-2.7-1.3.3-2.2,1.5-2.2,2.8v16.6c0,.6.4,1,1,1h16.6c1.3,0,2.5-.9,2.8-2.2.4-1.7-1-3.2-2.7-3.2Z"/>
</svg>