<?xml version="1.0" encoding="UTF-8"?>
<svg id="Layer_2" xmlns="http://www.w3.org/2000/svg" version="1.1" viewBox="0 0 100 100">
  <!-- Generator: Adobe Illustrator 29.6.1, SVG Export Plug-In . SVG Version: 2.1.1 Build 9)  -->
  <g>
    <path d="M27.57,25.04c0-9.55,7.77-17.32,17.32-17.32s17.32,7.77,17.32,17.32v4.06H27.57v-4.06ZM68.03,29.46v-4.5c0-12.72-10.38-23.06-23.15-23.06s-23.14,10.38-23.14,23.14v4.51c-8.16,1.72-14.04,8.95-14.04,17.35v22.99c0,9.23,7.51,16.74,16.74,16.74h18.71l.32-3.6c.07-.83.27-1.64.57-2.41h-19.6c-6.02,0-10.91-4.89-10.91-10.91v-22.9c0-6.55,5.32-11.88,11.87-11.88h38.88c6.55,0,11.88,5.33,11.88,11.88v.66l2.68-2.68c.82-.81,1.75-1.43,2.75-1.84-1.43-6.66-6.66-12.01-13.56-13.49ZM70.91,85.64c4.68-1.69,8.39-5.4,10.08-10.08l-10.08,10.08Z"/>
    <path d="M44.85,48.2c-3.04,0-5.51,2.47-5.51,5.51v8.26c0,1.42.62,2.88,1.63,3.85v4.91c0,2.21,1.8,4,4,4s4-1.72,4-4v-4.91c1.01-.97,1.63-2.43,1.63-3.85v-8.31c-.28-3.06-2.81-5.46-5.76-5.46Z"/>
  </g>
  <path d="M95.3,48.98l-4.19-4.19c-2.57-2.57-6.36-3.19-9.52-1.84-1,.41-1.93,1.03-2.75,1.84l-2.68,2.68-30.19,30.19c-.84.85-1.5,1.86-1.93,2.96-.3.77-.5,1.58-.57,2.41l-.32,3.6-.4,4.52c-.15,1.69.45,3.34,1.65,4.54,1.08,1.08,2.53,1.68,4.04,1.68.16,0,.33-.01.5-.03l8.12-.72c2.02-.17,3.93-1.06,5.37-2.5l32.87-32.87c3.38-3.38,3.38-8.89,0-12.27ZM81.98,66.79l-6.27,6.27-13.57,13.57-3.6,3.6c-.52.53-1.22.85-1.96.92l-8.12.71s-.1.01-.17-.06-.06-.14-.06-.17l.44-5,.28-3.12c.06-.74.39-1.43.91-1.96l26.3-26.3.24-.24,5.58,5.58,3.1,3.1-3.1,3.1ZM91.41,57.36l-2.44,2.44-8.68-8.68,2.44-2.44c1.24-1.24,3.25-1.24,4.49,0l4.19,4.19c1.24,1.24,1.24,3.25,0,4.49Z"/>
</svg>